<svg width="499" height="458" viewBox="0 0 499 458" fill="none" xmlns="http://www.w3.org/2000/svg">
<path d="M174.94 150.839C175.983 150.818 177.027 150.797 178.102 150.775C188.217 150.731 197.085 152.859 204.765 159.106C210.286 162.399 216.982 161.606 223.329 161.525C224.064 161.521 224.799 161.518 225.556 161.514C241.852 161.425 258.038 160.059 274.26 158.76C287.98 157.665 301.619 156.651 315.399 156.617C316.586 156.608 317.774 156.598 318.998 156.588C326.967 156.668 332.047 157.961 338.74 162.022C339.59 165.076 339.451 167.896 338.74 170.968C334.406 175.586 330.986 176.348 324.544 176.932C321.272 177.059 318.007 177.072 314.733 177.064C313.799 177.065 312.866 177.066 311.904 177.067C309.929 177.068 307.953 177.066 305.978 177.062C303.031 177.056 300.084 177.061 297.137 177.068C276.195 177.078 255.647 175.771 234.859 173.531C232.185 173.245 229.511 172.972 226.836 172.7C226.044 172.611 225.252 172.522 224.436 172.43C216.805 171.665 208.913 171.4 202.581 175.814C201.768 176.348 200.954 176.882 200.116 177.433C199.375 177.924 198.635 178.414 197.872 178.92C188.777 183.82 178.58 183.058 168.32 183.02C166.349 183.014 166.349 183.014 164.339 183.008C135.264 182.842 135.264 182.842 122.524 178.92C122.164 178.264 121.803 177.608 121.432 176.932C131.109 176.291 140.679 175.888 150.387 175.969C156.772 175.917 163.12 175.437 169.48 174.944C163.234 174.309 156.993 173.838 150.72 173.488C149.346 173.41 147.972 173.333 146.557 173.253C143.705 173.095 140.852 172.942 138 172.795C136.634 172.716 135.269 172.637 133.862 172.556C132.628 172.49 131.393 172.423 130.122 172.354C127.073 171.984 125.136 171.404 122.524 169.974C124.208 168.441 125.804 168.818 128.151 168.776C129.113 168.756 130.074 168.736 131.065 168.716C132.111 168.699 133.156 168.683 134.233 168.665C135.298 168.645 136.363 168.624 137.46 168.603C140.876 168.538 144.292 168.479 147.708 168.421C150.018 168.378 152.328 168.335 154.638 168.291C160.313 168.184 165.988 168.083 171.664 167.986C171.664 167.33 171.664 166.674 171.664 165.998C170.583 166.326 169.502 166.654 168.388 166.992C166.921 166.704 165.464 166.369 164.02 165.998C160.849 165.78 157.692 165.604 154.516 165.466C153.601 165.423 152.686 165.381 151.744 165.337C148.829 165.201 145.914 165.072 142.999 164.942C141.02 164.851 139.04 164.76 137.061 164.668C132.216 164.445 127.37 164.226 122.524 164.01C122.524 163.354 122.524 162.698 122.524 162.022C127.084 161.038 131.444 160.847 136.123 160.748C136.888 160.73 137.653 160.712 138.442 160.693C141.7 160.615 144.958 160.547 148.216 160.479C150.6 160.428 152.985 160.371 155.369 160.314C157.505 160.268 157.505 160.268 159.683 160.222C162.802 160.368 162.802 160.368 164.02 159.04C160.096 158.237 156.38 157.881 152.362 157.766C151.187 157.729 150.013 157.692 148.802 157.654C147.585 157.619 146.369 157.585 145.115 157.549C137.519 157.331 130.049 157.059 122.524 156.058C122.884 155.402 123.245 154.746 123.616 154.07C126.551 153.606 129.393 153.27 132.352 153.014C133.241 152.932 134.129 152.85 135.045 152.766C148.336 151.583 161.586 150.989 174.94 150.839Z" fill="#F6D859"/>
<path d="M172.21 328.952C187.256 330.867 202.054 332.174 217.255 332.182C218.411 332.195 219.566 332.207 220.757 332.219C221.893 332.221 223.029 332.223 224.199 332.225C225.702 332.231 225.702 332.231 227.235 332.237C230.04 332.038 232.26 331.641 234.951 331.002C242.031 329.499 249.18 329.742 256.409 329.779C257.95 329.78 259.491 329.781 261.031 329.78C264.25 329.782 267.469 329.79 270.688 329.803C274.768 329.82 278.849 329.824 282.93 329.823C286.111 329.824 289.291 329.829 292.472 329.836C293.974 329.839 295.477 329.841 296.979 329.842C332.666 329.879 332.666 329.879 339.58 335.576C340.024 336.035 340.467 336.493 340.924 336.966C338.978 341.246 336.329 343.155 331.685 344.98C320.077 348.379 308.231 349.64 296.152 350.882C294.917 351.015 293.683 351.149 292.411 351.286C288.921 351.595 285.461 351.759 281.956 351.876C280.978 351.914 279.999 351.951 278.991 351.99C262.011 352.573 247.63 352.081 232.475 344.607C224.704 341.266 214.967 342.601 206.608 342.93C205.755 342.963 204.902 342.995 204.022 343.029C189.175 343.639 174.499 345.168 159.763 346.889C139.569 349.164 139.569 349.164 130.168 345.912C127.142 342.528 126.878 340.68 126.96 336.345C128.118 332.552 128.814 331.243 132.352 329.014C145.027 324.819 159.208 327.265 172.21 328.952Z" fill="#F7DA5B"/>
<path d="M312.805 156.803C314.815 156.773 314.815 156.773 316.866 156.741C325.853 156.706 331.224 157.461 338.74 162.022C339.59 165.076 339.451 167.896 338.74 170.968C334.406 175.586 330.986 176.348 324.544 176.932C321.272 177.059 318.007 177.072 314.733 177.064C313.799 177.065 312.866 177.066 311.904 177.067C309.929 177.068 307.953 177.066 305.978 177.062C303.031 177.056 300.084 177.061 297.137 177.068C280.721 177.074 264.305 176.615 247.968 175.068C247.154 175.003 246.34 174.938 245.502 174.87C241.247 174.473 237.582 173.787 233.58 172.401C227.518 170.438 221.641 170.639 215.276 170.782C214.122 170.795 212.969 170.809 211.78 170.822C208.963 170.857 206.148 170.906 203.332 170.968C202.972 171.624 202.611 172.28 202.24 172.956C198.964 170.968 198.964 170.968 198.213 168.359C198.101 167.58 197.988 166.801 197.872 165.998C203.319 164.392 208.252 163.699 213.992 163.633C214.77 163.616 215.549 163.6 216.351 163.582C218.814 163.53 221.276 163.49 223.739 163.451C226.213 163.407 228.687 163.361 231.161 163.309C233.397 163.263 235.633 163.226 237.869 163.189C240.848 163.049 243.079 162.675 245.92 162.022C248.582 161.874 251.248 161.776 253.914 161.707C254.678 161.687 255.442 161.666 256.23 161.645C258.663 161.58 261.095 161.521 263.529 161.463C265.174 161.42 266.819 161.377 268.464 161.333C280.086 161.028 280.086 161.028 283.048 161.028C283.048 160.372 283.048 159.716 283.048 159.04C291.25 155.307 303.863 156.838 312.805 156.803Z" fill="#F6D85B"/>
<path d="M217.255 220.979C221.388 225.472 220.908 229.887 220.804 235.578C220.706 243.305 221.093 250.983 221.604 258.694C221.657 259.552 221.709 260.41 221.764 261.294C221.815 262.062 221.867 262.83 221.92 263.621C221.896 265.398 221.896 265.398 220.804 266.392C218.041 266.465 215.308 266.484 212.546 266.454C211.769 266.45 210.993 266.445 210.193 266.441C208.27 266.429 206.347 266.411 204.424 266.392C204.209 263.141 204.008 259.89 203.81 256.638C203.749 255.715 203.687 254.792 203.624 253.841C203.571 252.953 203.519 252.066 203.464 251.152C203.413 250.335 203.361 249.517 203.308 248.675C203.332 246.512 203.332 246.512 204.424 243.53C201.901 243.858 199.379 244.186 196.78 244.524C196.42 251.74 196.059 258.957 195.688 266.392C190.283 266.392 184.877 266.392 179.308 266.392C177.983 262.773 178.133 259.513 178.233 255.753C178.251 255.002 178.269 254.25 178.288 253.476C178.329 251.885 178.373 250.294 178.42 248.703C178.488 246.287 178.534 243.87 178.579 241.453C178.621 239.903 178.665 238.354 178.711 236.805C178.721 236.089 178.732 235.374 178.742 234.636C178.928 229.566 180.006 226.079 182.584 221.662C191.862 215.37 207.675 214.302 217.255 220.979ZM196.78 222.656C195.779 228.009 195.566 233.135 195.688 238.56C198.571 238.56 201.454 238.56 204.424 238.56C204.453 236.096 204.475 233.632 204.492 231.167C204.501 230.464 204.511 229.762 204.52 229.037C204.529 227.241 204.481 225.445 204.424 223.65C203.195 222.302 203.195 222.302 199.988 222.594C198.929 222.614 197.871 222.635 196.78 222.656Z" fill="#E1E1E1"/>
<path d="M125.8 221.662C128.626 225.521 128.367 228.828 128.436 233.31C128.457 234.16 128.478 235.009 128.5 235.884C128.566 238.598 128.616 241.312 128.667 244.027C128.708 245.856 128.751 247.685 128.794 249.513C129.076 261.64 129.076 261.64 129.076 266.392C123.671 266.392 118.265 266.392 112.696 266.392C112.336 259.176 111.975 251.959 111.604 244.524C109.081 244.196 106.559 243.868 103.96 243.53C103.969 244.516 103.969 244.516 103.977 245.522C104 248.482 104.014 251.442 104.028 254.402C104.037 255.437 104.047 256.471 104.056 257.537C104.061 259.012 104.061 259.012 104.067 260.517C104.075 261.884 104.075 261.884 104.084 263.278C103.96 265.398 103.96 265.398 102.868 266.392C100.105 266.465 97.3719 266.484 94.6098 266.454C93.4453 266.447 93.4453 266.447 92.2573 266.441C90.3341 266.429 88.4111 266.411 86.488 266.392C86.5634 260.838 86.6595 255.285 86.7746 249.732C86.8108 247.845 86.8415 245.957 86.8663 244.069C86.9031 241.35 86.9602 238.631 87.0212 235.912C87.0282 235.073 87.0352 234.234 87.0424 233.37C87.1762 228.444 87.7856 224.899 90.856 220.668C101.741 215.142 115.602 214.947 125.8 221.662ZM103.96 223.65C103.88 226.165 103.859 228.653 103.892 231.167C103.897 231.874 103.902 232.58 103.907 233.308C103.92 235.059 103.939 236.81 103.96 238.56C106.843 238.56 109.726 238.56 112.696 238.56C112.725 236.282 112.747 234.004 112.764 231.726C112.777 230.458 112.79 229.189 112.803 227.882C112.949 224.757 112.949 224.757 111.604 222.656C107.448 222.22 107.448 222.22 103.96 223.65Z" fill="#E8E8E8"/>
<path d="M260.116 216.692C263.21 219.013 265.851 221.421 267.76 224.644C267.36 229.176 265.328 232.003 262.3 235.578C261.112 236.427 259.905 237.255 258.683 238.063C257.23 239.293 257.23 239.293 255.748 240.548C255.928 245.839 258.544 250.019 261.208 254.588C262.008 255.976 262.805 257.366 263.597 258.758C264.127 259.67 264.127 259.67 264.667 260.599C265.622 262.508 266.177 264.347 266.668 266.392C254.783 267.013 254.783 267.013 250.152 264.653C248.298 262.627 246.976 260.888 245.92 258.44C245.244 260.101 245.244 260.101 244.555 261.795C243.444 264.118 242.837 265.253 240.665 266.889C237.24 267.601 235.091 267.33 231.724 266.392C227.68 263.201 225.474 261.152 224.626 256.328C225.462 250.429 229.746 246.74 234.774 243.111C236.334 241.589 236.334 241.589 236.062 239.41C234.537 235.335 232.305 231.696 230.018 227.937C229.102 226.423 228.191 224.908 227.283 223.39C226.879 222.724 226.474 222.058 226.057 221.372C225.172 219.674 225.172 219.674 225.172 217.686C227.651 217.632 230.131 217.594 232.611 217.562C233.992 217.539 235.373 217.516 236.796 217.492C240.46 217.686 240.46 217.686 243.736 219.674C245.033 222.283 245.033 222.283 245.92 224.644C246.19 223.721 246.461 222.799 246.739 221.848C249.436 215.588 253.162 214.654 260.116 216.692ZM247.012 227.626C248.104 229.614 248.104 229.614 248.104 229.614L247.012 227.626ZM248.104 229.614C248.442 230.373 248.78 231.131 249.128 231.913C249.937 233.777 250.684 235.664 251.38 237.566C252.101 237.566 252.821 237.566 253.564 237.566C256.183 234.945 256.183 234.945 256.84 231.602C253.957 230.946 251.074 230.29 248.104 229.614ZM238.276 245.518C235.657 248.139 235.657 248.139 235 251.482C237.523 251.81 240.045 252.138 242.644 252.476C241.928 248.888 241.928 248.888 240.46 245.518C239.739 245.518 239.019 245.518 238.276 245.518ZM242.644 252.476C243.736 254.464 243.736 254.464 243.736 254.464L242.644 252.476Z" fill="#E9E9E9"/>
<path d="M80.0042 221.911C82.7099 225.406 82.7171 227.409 82.12 231.602C81.3993 232.586 80.6785 233.57 79.936 234.584C79.2153 234.584 78.4945 234.584 77.752 234.584C77.3916 235.24 77.0313 235.896 76.66 236.572C69.6644 235.25 69.6644 235.25 66.9002 232.41C65.492 229.017 65.5075 226.254 65.74 222.656C63.2175 222.656 60.6949 222.656 58.096 222.656C58.6365 240.861 58.6365 240.861 59.188 259.434C60.9898 259.434 62.7916 259.434 64.648 259.434C66.7675 257.505 66.1759 253.994 66.3542 251.42C66.4457 250.137 66.5372 248.855 66.6315 247.533C66.7307 246.044 66.7307 246.044 66.832 244.524C65.0302 244.524 63.2284 244.524 61.372 244.524C61.372 243.212 61.372 241.9 61.372 240.548C64.6253 240.521 67.8784 240.502 71.1317 240.486C72.5243 240.473 72.5243 240.473 73.9449 240.461C74.8282 240.457 75.7115 240.454 76.6216 240.451C77.4394 240.446 78.2571 240.441 79.0997 240.435C81.028 240.548 81.028 240.548 82.12 241.542C82.347 244.293 82.4745 246.988 82.5295 249.743C82.5703 250.502 82.6111 251.262 82.6532 252.045C82.7263 256.329 82.5715 257.928 79.518 261.391C73.1726 265.874 66.1766 266.72 58.2965 266.182C51.5597 265.298 47.3663 264.115 42.808 259.434C40.0195 253.168 40.2226 247.215 40.2145 240.548C40.1744 238.814 40.1744 238.814 40.1334 237.046C40.1094 230.674 40.1077 226.428 44.992 221.662C47.3807 220.42 47.3807 220.42 49.36 219.674C49.7203 219.018 50.0807 218.362 50.452 217.686C61.1673 215.695 70.9982 215.888 80.0042 221.911Z" fill="#E4E4E4"/>
<path d="M272.128 75.544C273.519 75.8041 274.91 76.0642 276.342 76.3322C283.652 77.7631 283.652 77.7631 286.324 78.526C286.684 79.182 287.045 79.8381 287.416 80.514C288.497 80.186 289.578 79.858 290.692 79.52C290.692 80.176 290.692 80.8321 290.692 81.508C291.773 81.18 292.854 80.852 293.968 80.514C295.765 81.1483 297.558 81.7987 299.304 82.5408C302.9 84.0289 306.61 85.2476 310.305 86.5129C312.532 87.472 312.532 87.472 313.624 89.46C316.932 90.1138 316.932 90.1138 320.176 90.454C320.176 91.11 320.176 91.7661 320.176 92.442C321.46 92.7495 321.46 92.7495 322.769 93.0633C327.287 94.6231 331.09 96.7289 335.17 99.0622C337.689 100.522 337.689 100.522 340.924 101.388C342.744 103.045 344.564 104.701 346.384 106.358C348.192 107.371 350.012 108.364 351.844 109.34C357.274 113.253 362.042 117.608 366.902 122.087C367.934 123.036 368.966 123.985 369.998 124.933C370.519 125.416 371.04 125.898 371.577 126.395C374.003 128.619 376.265 130.455 379.144 132.202C380.259 133.846 381.346 135.506 382.42 137.172C386.056 142.37 386.056 142.37 391.156 146.118C391.156 147.102 391.156 148.086 391.156 149.1C391.877 149.1 392.597 149.1 393.34 149.1C394.061 151.068 394.781 153.036 395.524 155.064C396.245 155.064 396.965 155.064 397.708 155.064C397.843 155.864 397.978 156.663 398.117 157.487C398.343 158.327 398.568 159.168 398.8 160.034C399.521 160.362 400.241 160.69 400.984 161.028C403.487 164.511 405.55 168.185 407.604 171.9C408.157 172.893 408.711 173.886 409.281 174.909C411.556 179.391 412.996 182.898 412.996 187.866C411.915 187.866 410.834 187.866 409.72 187.866C409.295 186.842 408.87 185.818 408.432 184.764C400.182 165.434 388.232 147.532 372.601 132.384C370.408 130.214 370.408 130.214 368.22 127.682C366.162 125.381 364.073 123.506 361.604 121.579C360.87 121.001 360.137 120.423 359.381 119.827C357.167 118.134 357.167 118.134 354.028 116.298C354.028 115.642 354.028 114.986 354.028 114.31C353.145 113.945 353.145 113.945 352.245 113.572C349.036 112.02 346.2 110.147 343.244 108.222C311.311 87.8225 273.954 76.3499 234.893 76.3538C232.492 76.3516 230.092 76.3336 227.691 76.3147C218.982 76.2834 210.77 76.8072 202.24 78.526C200.125 78.8214 198.01 79.1126 195.893 79.3958C184.507 81.1363 173.738 84.4334 162.928 88.0311C162.053 88.3222 161.178 88.6133 160.277 88.9133C155.541 90.5218 151.032 92.2897 146.548 94.43C145.527 94.89 144.507 95.35 143.455 95.8239C127.769 103.178 113.791 112.561 101.212 123.8C99.6215 125.218 98.0098 126.612 96.3928 128.005C89.3276 134.213 83.4221 140.819 77.752 148.106C77.0665 148.957 76.3809 149.808 75.6746 150.684C66.7534 161.914 59.6413 174.7 54.82 187.866C53.3786 187.538 51.9371 187.21 50.452 186.872C50.8124 185.232 51.1727 183.592 51.544 181.902C52.2647 181.902 52.9854 181.902 53.728 181.902C54.4487 178.95 55.1694 175.998 55.912 172.956C56.6327 172.956 57.3534 172.956 58.096 172.956C58.8167 170.332 59.5374 167.708 60.28 165.004C61.0007 165.004 61.7214 165.004 62.464 165.004C63.1847 162.708 63.9054 160.412 64.648 158.046C65.3687 158.046 66.0894 158.046 66.832 158.046C67.1846 157.052 67.1846 157.052 67.5444 156.039C69.5083 152.085 72.207 148.873 75.0902 145.435C75.6801 144.727 76.2699 144.019 76.8775 143.29C81.6077 137.671 86.5615 132.342 91.948 127.232C92.8939 126.308 93.8399 125.384 94.8145 124.432C105.232 114.455 117.314 105.671 130.168 98.406C130.889 98.406 131.609 98.406 132.352 98.406C132.712 97.75 133.073 97.0939 133.444 96.418C136.04 95.0983 138.623 93.8748 141.293 92.6905C142.078 92.3385 142.863 91.9864 143.672 91.6237C151.073 88.337 158.57 85.3169 166.204 82.502C167.731 81.935 167.731 81.935 169.288 81.3566C177.182 78.5768 185.218 77.0417 193.504 75.544C196.032 75.0341 198.556 74.5111 201.08 73.9831C224.42 69.557 248.975 71.0431 272.128 75.544Z" fill="#A69C6E"/>
<path d="M51.544 309.134C52.6251 309.462 53.7062 309.79 54.82 310.128C56.246 312.766 57.4989 315.361 58.7103 318.08C67.3752 336.561 79.3525 354.494 95.7188 368.176C97.408 369.768 97.408 369.768 97.408 371.756C98.0561 372.018 98.7043 372.28 99.3721 372.55C101.877 373.794 103.365 375.055 105.295 376.951C109.403 380.795 113.845 383.93 118.634 387.039C119.489 387.596 120.345 388.154 121.226 388.728C129.339 393.93 137.725 398.447 146.548 402.57C147.213 402.885 147.878 403.199 148.562 403.524C173.995 415.422 202.469 420.69 230.905 420.71C231.738 420.711 232.572 420.712 233.431 420.713C246.247 420.696 258.511 420.137 271.036 417.48C272.275 417.232 272.275 417.232 273.54 416.979C305.698 410.447 333.179 396.711 358.396 377.72C359.435 376.959 359.435 376.959 360.495 376.182C365.461 372.462 369.556 368.281 373.684 363.804C374.934 362.499 374.934 362.499 376.209 361.168C390.545 345.978 403.186 328.39 409.72 309.134C411.882 309.626 411.882 309.626 414.088 310.128C409.037 320.933 403.587 331.483 397.708 341.936C396.987 341.936 396.267 341.936 395.524 341.936C395.283 342.602 395.043 343.269 394.795 343.955C392.892 347.815 390.308 350.98 387.539 354.361C387.021 355.008 386.504 355.655 385.971 356.322C382.879 360.133 379.615 363.481 375.868 366.786C374.358 368.353 372.856 369.927 371.364 371.508C366.069 376.873 360.288 381.271 354.028 385.672C352.772 386.59 351.517 387.509 350.261 388.429C341.776 394.537 332.924 399.75 323.52 404.62C322.473 405.165 321.426 405.71 320.348 406.271C314.231 409.366 308.306 411.688 301.612 413.504C299.987 414.005 298.363 414.51 296.741 415.018C291.637 416.566 286.477 417.858 281.274 419.095C280.392 419.311 279.511 419.526 278.603 419.748C273.545 420.958 268.589 421.843 263.392 422.45C262.053 422.694 262.053 422.694 260.688 422.943C216.145 431.04 165.96 419.725 127.984 397.6C118.693 391.876 109.971 385.544 101.793 378.555C99.6215 376.678 99.6215 376.678 97.1179 375.115C96.4929 374.662 95.8679 374.21 95.224 373.744C95.224 373.088 95.224 372.432 95.224 371.756C94.5033 371.756 93.7826 371.756 93.04 371.756C93.04 371.1 93.04 370.444 93.04 369.768C92.0575 369.381 92.0575 369.381 91.0552 368.987C88.4765 367.681 87.2618 366.502 85.4856 364.379C84.9096 363.695 84.3336 363.011 83.7401 362.306C83.1379 361.57 82.5357 360.834 81.9153 360.077C81.2856 359.314 80.6559 358.551 80.0072 357.766C72.0325 348.012 65.0524 337.909 58.7103 327.212C58.2455 326.441 57.7807 325.669 57.3018 324.873C54.2989 319.681 52.6995 314.91 51.544 309.134Z" fill="#A39A66"/>
<path d="M269.944 216.692C272.241 216.611 274.539 216.554 276.837 216.506C278.117 216.471 279.396 216.436 280.715 216.401C284.14 216.692 284.14 216.692 285.957 217.857C287.954 220.344 287.886 222.12 287.975 225.184C288.033 226.784 288.033 226.784 288.092 228.416C288.117 229.529 288.141 230.642 288.167 231.788C288.223 233.475 288.223 233.475 288.28 235.196C288.37 237.974 288.445 240.751 288.508 243.53C290.67 243.53 292.832 243.53 295.06 243.53C295.07 242.894 295.08 242.257 295.091 241.601C295.15 238.702 295.241 235.805 295.333 232.907C295.348 231.905 295.364 230.904 295.38 229.872C295.538 225.506 295.726 222.409 297.961 218.494C301.291 216.149 303.182 216.175 307.345 216.381C308.522 216.426 309.699 216.471 310.911 216.517C311.806 216.575 312.702 216.633 313.624 216.692C313.751 220.378 313.829 224.063 313.897 227.75C313.934 228.791 313.97 229.831 314.008 230.903C314.094 237.119 313.867 240.807 309.256 245.518C306.427 247.771 303.951 248.926 300.52 250.488C300.88 255.408 301.241 260.329 301.612 265.398C295.486 265.398 289.36 265.398 283.048 265.398C283.048 260.15 283.048 254.901 283.048 249.494C280.886 248.51 278.724 247.526 276.496 246.512C273.591 244.253 272.313 242.598 271.708 239.141C271.491 236.25 271.408 233.381 271.377 230.484C271.331 228.514 271.282 226.544 271.228 224.574C271.216 223.705 271.203 222.836 271.191 221.941C271.132 219.51 271.132 219.51 269.944 216.692Z" fill="#EBEBEB"/>
<path d="M217.055 86.346C218.885 86.343 218.885 86.343 220.752 86.3399C222.703 86.3468 222.703 86.3468 224.694 86.3538C226.019 86.3564 227.344 86.359 228.709 86.3618C261.222 86.5166 261.222 86.5166 275.404 90.454C276.914 90.8578 278.424 91.2617 279.934 91.6654C281.473 92.089 283.011 92.5136 284.55 92.939C285.339 93.1504 286.129 93.3618 286.943 93.5797C288.941 94.136 290.912 94.7739 292.876 95.424C293.236 96.08 293.597 96.7361 293.968 97.412C295.049 97.084 296.13 96.756 297.244 96.418C300.179 97.3499 300.179 97.3499 302.704 98.406C302.704 99.062 302.704 99.7181 302.704 100.394C304.01 100.722 305.317 101.05 306.663 101.388C312.417 103.106 317.415 105.759 322.593 108.563C325.418 110.092 327.965 111.372 331.096 112.322C332.552 113.647 334.008 114.973 335.464 116.298C336.545 116.626 337.626 116.954 338.74 117.292C339.1 117.948 339.461 118.604 339.832 119.28C340.913 119.608 341.994 119.936 343.108 120.274C344.586 121.579 346.043 122.904 347.476 124.25C348.197 124.578 348.917 124.906 349.66 125.244C349.66 125.9 349.66 126.556 349.66 127.232C350.381 127.232 351.101 127.232 351.844 127.232C351.844 127.888 351.844 128.544 351.844 129.22C352.565 129.22 353.285 129.22 354.028 129.22C355.721 130.82 355.721 130.82 357.645 132.948C359.91 135.386 361.916 137.349 364.675 139.346C367.424 141.362 368.686 143.339 370.408 146.118C371.32 146.948 371.32 146.948 372.251 147.795C372.724 148.226 373.197 148.656 373.684 149.1C373.684 149.756 373.684 150.412 373.684 151.088C374.405 151.088 375.125 151.088 375.868 151.088C375.868 152.072 375.868 153.056 375.868 154.07C376.589 154.07 377.309 154.07 378.052 154.07C378.412 155.382 378.773 156.694 379.144 158.046C379.865 158.046 380.585 158.046 381.328 158.046C381.688 159.686 382.049 161.326 382.42 163.016C383.141 163.016 383.861 163.016 384.604 163.016C387.75 168.495 387.75 168.495 388.494 171.279C388.652 171.832 388.81 172.386 388.972 172.956C389.693 173.284 390.413 173.612 391.156 173.95C392.187 175.696 393.131 177.485 394.023 179.293C394.51 180.264 394.997 181.235 395.498 182.236C396.616 184.884 396.616 184.884 396.616 187.866C395.535 187.866 394.454 187.866 393.34 187.866C392.798 186.856 392.256 185.847 391.698 184.806C380.95 164.914 368.345 145.876 349.387 131.519C348.396 130.76 347.405 130.002 346.384 129.22C346.384 128.564 346.384 127.908 346.384 127.232C345.825 127.013 345.266 126.794 344.691 126.568C340.907 124.695 337.6 122.321 334.167 119.963C328.251 115.971 322.453 112.271 315.808 109.34C314.613 108.803 313.418 108.266 312.186 107.713C307.974 105.852 303.714 104.098 299.428 102.382C297.458 101.592 297.458 101.592 295.448 100.786C255.252 85.5369 206.344 86.7858 166.264 101.609C146.437 109.334 128.193 119.735 112.7 133.429C110.512 135.184 110.512 135.184 108.328 135.184C108.035 135.763 107.742 136.342 107.441 136.939C106.128 139.188 104.683 140.955 102.868 142.888C102.305 143.497 101.742 144.107 101.162 144.736C99.592 146.118 99.592 146.118 97.408 146.118C97.1377 146.659 96.8675 147.199 96.589 147.757C94.931 150.596 92.9271 153.08 90.856 155.685C86.6884 161.046 83.0249 166.593 79.5265 172.335C78.8445 173.451 78.8445 173.451 78.1487 174.589C75.5421 178.928 73.2565 183.289 71.2 187.866C70.1189 187.866 69.0379 187.866 67.924 187.866C68.6524 183.49 70.1965 179.906 72.292 175.938C73.3731 175.446 73.3731 175.446 74.476 174.944C74.476 173.632 74.476 172.32 74.476 170.968C75.5239 169.935 76.6261 168.948 77.752 167.986C79.0869 166.061 80.3785 164.111 81.6423 162.146C89.2493 150.741 98.0988 141.241 108.396 131.767C109.77 130.496 109.77 130.496 111.172 129.198C116.159 124.694 121.115 120.833 127.094 117.463C129.23 116.297 129.23 116.297 131.26 114.31C133.633 113.01 136.011 111.752 138.426 110.52C139.112 110.169 139.797 109.817 140.503 109.455C141.878 108.749 143.255 108.045 144.632 107.342C146.304 106.483 147.967 105.608 149.628 104.731C150.481 104.284 151.334 103.837 152.213 103.376C152.949 102.986 153.685 102.597 154.444 102.196C156.376 101.388 156.376 101.388 159.652 101.388C159.652 100.732 159.652 100.076 159.652 99.4C166.435 97.0877 173.22 94.9346 180.174 93.0904C182.129 92.5644 184.066 91.9833 185.997 91.3859C192.51 89.4525 198.729 88.2541 205.537 87.7166C209.581 87.2592 212.884 86.3503 217.055 86.346Z" fill="#978E5D"/>
<path d="M67.924 309.134C69.0051 309.134 70.0862 309.134 71.2 309.134C71.742 310.144 72.2839 311.153 72.8423 312.194C82.6774 330.396 94.0407 346.113 109.42 360.822C110.055 361.452 110.69 362.083 111.344 362.732C133.728 384.288 164.504 396.757 195.688 403.564C196.476 403.741 197.263 403.918 198.075 404.1C242.02 413.565 289.021 402.793 326.908 381.871C331.286 379.317 335.375 376.438 339.444 373.496C342.016 371.756 342.016 371.756 345.292 370.762C345.652 369.778 346.013 368.794 346.384 367.78C347.903 366.456 347.903 366.456 349.933 364.984C369.206 350.024 383.744 330.401 393.34 309.134C394.421 309.134 395.502 309.134 396.616 309.134C394.994 314.546 394.994 314.546 393.34 320.068C392.619 320.068 391.899 320.068 391.156 320.068C391.156 321.38 391.156 322.692 391.156 324.044C390.435 324.044 389.715 324.044 388.972 324.044C388.657 324.946 388.341 325.848 388.017 326.778C387.044 329.334 386.007 331.612 384.604 333.984C383.883 333.984 383.163 333.984 382.42 333.984C382.151 334.687 381.882 335.391 381.605 336.116C376.144 347.437 364.587 357.175 355.12 365.792C353.802 367.299 353.802 367.299 352.458 368.836C349.584 371.835 346.773 373.603 343.108 375.732C342.365 376.409 341.622 377.085 340.856 377.782C338.517 379.911 336.2 381.291 333.28 382.69C332.559 382.69 331.839 382.69 331.096 382.69C330.736 383.346 330.375 384.002 330.004 384.678C325.581 387.309 320.866 389.537 316.218 391.822C315.488 392.188 314.759 392.554 314.008 392.931C308.543 395.612 308.543 395.612 304.888 395.612C304.528 396.268 304.167 396.924 303.796 397.6C298.256 400.04 292.573 401.662 286.665 403.191C285.851 403.407 285.037 403.622 284.198 403.844C281.259 404.617 278.326 405.386 275.357 406.055C273.471 406.488 271.609 407.004 269.752 407.532C265.006 408.671 260.419 409.227 255.543 409.652C254.594 409.735 253.645 409.818 252.667 409.904C203.905 413.817 157.186 402.13 119.112 373.806C118.163 373.08 117.214 372.353 116.236 371.605C113.722 369.655 113.722 369.655 110.512 367.78C110.512 367.124 110.512 366.468 110.512 365.792C109.791 365.792 109.071 365.792 108.328 365.792C106.865 364.507 106.865 364.507 105.12 362.624C104.44 361.891 103.76 361.158 103.06 360.403C102.276 359.557 101.492 358.711 100.684 357.84C99.7761 356.912 98.8681 355.985 97.9327 355.029C67.924 324.157 67.924 324.157 67.924 309.134Z" fill="#A59C68"/>
<path d="M133.444 217.686C146.548 217.686 146.548 217.686 149.509 219.638C151.355 223.598 151.574 226.922 151.581 231.187C151.609 232.4 151.609 232.4 151.636 233.639C151.689 236.211 151.712 238.783 151.735 241.356C151.766 243.105 151.798 244.854 151.833 246.603C151.914 250.88 151.968 255.157 152.008 259.434C154.531 259.434 157.053 259.434 159.652 259.434C159.359 258.388 159.066 257.343 158.765 256.266C158.56 252.476 158.56 252.476 160.812 249.556C164.02 247.506 164.02 247.506 167.364 246.947C170.572 247.506 170.572 247.506 173.166 249.059C175.649 252.451 175.634 254.44 174.94 258.44C170.539 263.448 166.653 265.339 159.795 266.188C155.273 266.584 150.746 266.534 146.207 266.516C144.723 266.522 144.723 266.522 143.21 266.528C142.266 266.527 141.322 266.525 140.35 266.524C139.495 266.523 138.64 266.522 137.759 266.521C135.628 266.392 135.628 266.392 133.444 265.398C133.444 249.653 133.444 233.908 133.444 217.686Z" fill="#E3E3E3"/>
<path d="M421.732 216.692C421.732 232.765 421.732 248.838 421.732 265.398C417.047 265.398 412.363 265.398 407.536 265.398C406.235 240.823 406.235 240.823 406.444 228.62C406.027 230.266 405.664 231.925 405.352 233.59C405.712 233.918 406.073 234.246 406.444 234.584C406.84 238.406 407.005 240.725 404.738 244.027C402.076 245.518 402.076 245.518 398.186 245.456C392.818 244.123 392.818 244.123 391.156 241.542C390.61 238.684 390.61 238.684 391.156 235.578C393.34 233.217 393.34 233.217 396.616 230.608C398.056 229.289 399.489 227.963 400.916 226.632C411.877 216.692 411.877 216.692 421.732 216.692Z" fill="#F2F2F2"/>
<path d="M383.512 216.692C384.82 219.073 384.736 220.537 384.728 223.194C384.728 224.129 384.728 225.065 384.728 226.028C384.722 227.04 384.716 228.051 384.711 229.094C384.709 230.128 384.708 231.162 384.706 232.227C384.7 235.539 384.686 238.851 384.672 242.163C384.667 244.405 384.662 246.647 384.657 248.888C384.645 254.392 384.626 259.895 384.604 265.398C379.559 265.398 374.514 265.398 369.316 265.398C369.676 252.933 370.037 240.468 370.408 227.626C369.327 228.61 368.246 229.594 367.132 230.608C367.515 231.285 367.898 231.961 368.292 232.658C369.601 236.391 369.3 238.76 368.224 242.536C366.45 244.524 366.45 244.524 363.856 245.518C356.947 245.193 356.947 245.193 354.028 242.536C352.882 239.568 352.675 238.131 354.028 235.205C361.016 226.857 371.388 216.394 383.512 216.692Z" fill="#EBEBEB"/>
<path d="M174.94 150.839C175.983 150.818 177.027 150.797 178.102 150.775C186.943 150.737 194.939 152.275 202.24 157.052C202.781 158.036 202.781 158.036 203.332 159.04C201.891 159.368 200.449 159.696 198.964 160.034C198.964 159.378 198.964 158.722 198.964 158.046C191.396 156.181 191.396 156.181 183.676 155.064C179.715 157.468 179.535 158.984 178.216 163.016C177.856 163.344 177.495 163.672 177.124 164.01C177.438 166.335 177.8 168.656 178.216 170.968C177.135 170.64 176.054 170.312 174.94 169.974C174.58 171.286 174.219 172.598 173.848 173.95C162.585 174.207 151.438 173.829 140.201 173.08C138.957 173.002 137.714 172.924 136.433 172.844C135.259 172.76 134.086 172.677 132.877 172.591C131.828 172.518 130.78 172.445 129.7 172.37C126.899 171.963 124.964 171.261 122.524 169.974C124.208 168.441 125.804 168.818 128.151 168.776C129.112 168.756 130.074 168.736 131.065 168.716C132.111 168.699 133.156 168.683 134.233 168.665C135.298 168.645 136.363 168.624 137.46 168.603C140.876 168.538 144.292 168.479 147.708 168.421C150.018 168.378 152.328 168.335 154.638 168.291C160.313 168.184 165.988 168.083 171.664 167.986C171.664 167.33 171.664 166.674 171.664 165.998C170.583 166.326 169.502 166.654 168.388 166.992C166.921 166.704 165.464 166.369 164.02 165.998C160.849 165.78 157.692 165.604 154.516 165.466C153.601 165.423 152.686 165.381 151.744 165.337C148.829 165.201 145.914 165.072 142.999 164.942C141.02 164.851 139.04 164.76 137.061 164.668C132.216 164.445 127.37 164.226 122.524 164.01C122.524 163.354 122.524 162.698 122.524 162.022C127.084 161.038 131.444 160.847 136.123 160.748C136.888 160.73 137.653 160.712 138.442 160.693C141.7 160.615 144.958 160.547 148.216 160.479C150.6 160.428 152.985 160.371 155.369 160.314C157.505 160.268 157.505 160.268 159.683 160.222C162.802 160.368 162.802 160.368 164.02 159.04C160.096 158.237 156.379 157.881 152.362 157.766C151.187 157.729 150.013 157.692 148.802 157.654C147.585 157.619 146.369 157.585 145.115 157.549C137.519 157.331 130.049 157.059 122.524 156.058C122.884 155.402 123.245 154.746 123.616 154.07C126.551 153.606 129.393 153.27 132.352 153.014C133.241 152.932 134.129 152.85 135.045 152.766C148.336 151.583 161.586 150.989 174.94 150.839Z" fill="#E1C85B"/>
<path d="M216.491 72.6824C217.211 72.7058 217.93 72.7293 218.672 72.7535C220.952 72.8291 223.233 72.9129 225.513 72.9969C227.067 73.0498 228.62 73.1023 230.173 73.1541C233.967 73.282 237.759 73.417 241.552 73.556C241.552 73.884 241.552 74.212 241.552 74.55C240.788 74.5998 240.024 74.6496 239.237 74.7009C235.708 74.9345 232.18 75.1771 228.653 75.4197C226.851 75.537 226.851 75.537 225.012 75.6566C217.295 76.1953 209.831 77.1736 202.24 78.526C200.125 78.8214 198.01 79.1126 195.893 79.3957C184.507 81.1363 173.738 84.4334 162.928 88.0311C162.053 88.3222 161.178 88.6133 160.277 88.9133C155.541 90.5218 151.032 92.2897 146.548 94.43C145.527 94.89 144.507 95.35 143.455 95.8239C127.769 103.178 113.791 112.561 101.212 123.8C99.6215 125.218 98.0098 126.612 96.3928 128.005C89.3276 134.213 83.4221 140.819 77.752 148.106C77.0665 148.957 76.3809 149.808 75.6746 150.684C66.7534 161.914 59.6413 174.7 54.82 187.866C53.3786 187.538 51.9371 187.21 50.452 186.872C50.8124 185.232 51.1727 183.592 51.544 181.902C52.2647 181.902 52.9854 181.902 53.728 181.902C54.4487 178.95 55.1694 175.998 55.912 172.956C56.6327 172.956 57.3534 172.956 58.096 172.956C58.8167 170.332 59.5374 167.708 60.28 165.004C61.0007 165.004 61.7214 165.004 62.464 165.004C63.1847 162.708 63.9054 160.412 64.648 158.046C65.3687 158.046 66.0894 158.046 66.832 158.046C67.1846 157.052 67.1846 157.052 67.5444 156.039C69.5083 152.085 72.207 148.873 75.0902 145.435C75.6801 144.727 76.2699 144.019 76.8775 143.29C81.6077 137.671 86.5615 132.342 91.948 127.232C92.8939 126.308 93.8399 125.384 94.8145 124.432C105.232 114.455 117.314 105.671 130.168 98.406C130.889 98.406 131.609 98.406 132.352 98.406C132.712 97.75 133.073 97.0939 133.444 96.418C136.04 95.0983 138.623 93.8748 141.293 92.6905C142.078 92.3385 142.863 91.9864 143.672 91.6237C151.073 88.337 158.57 85.3169 166.204 82.502C167.731 81.935 167.731 81.935 169.288 81.3566C177.182 78.5769 185.218 77.0399 193.504 75.544C195.348 75.1769 197.191 74.805 199.032 74.4257C200.464 74.1315 201.898 73.8415 203.332 73.556C204.118 73.3807 204.905 73.2054 205.715 73.0248C209.387 72.4725 212.772 72.5527 216.491 72.6824Z" fill="#A79C69"/>
<path d="M409.72 309.134C411.882 309.626 411.882 309.626 414.088 310.128C409.037 320.933 403.587 331.483 397.708 341.936C396.987 341.936 396.267 341.936 395.524 341.936C395.163 342.935 395.163 342.935 394.795 343.955C392.892 347.815 390.308 350.98 387.539 354.361C386.763 355.332 386.763 355.332 385.971 356.322C382.879 360.133 379.615 363.481 375.868 366.786C374.358 368.353 372.856 369.927 371.364 371.508C366.069 376.873 360.288 381.271 354.028 385.672C352.772 386.59 351.517 387.509 350.261 388.429C341.776 394.537 332.924 399.75 323.52 404.62C322.473 405.165 321.426 405.71 320.348 406.271C314.231 409.366 308.306 411.688 301.612 413.504C299.987 414.005 298.363 414.51 296.741 415.018C291.637 416.566 286.477 417.858 281.274 419.095C280.392 419.311 279.511 419.526 278.603 419.748C273.545 420.958 268.589 421.843 263.392 422.45C262.612 422.62 261.831 422.791 261.028 422.967C256.869 423.608 252.764 423.566 248.56 423.541C247.227 423.539 247.227 423.539 245.866 423.537C243.04 423.531 240.215 423.519 237.389 423.506C235.467 423.501 233.545 423.497 231.624 423.493C226.925 423.482 222.227 423.464 217.528 423.444C217.528 423.116 217.528 422.788 217.528 422.45C218.257 422.441 218.985 422.431 219.736 422.422C237.213 422.145 253.947 420.873 271.036 417.48C271.943 417.301 272.85 417.121 273.785 416.936C305.841 410.385 333.251 396.657 358.396 377.72C359.435 376.959 359.435 376.959 360.495 376.182C365.461 372.462 369.556 368.281 373.684 363.804C374.934 362.499 374.934 362.499 376.209 361.168C390.545 345.978 403.186 328.39 409.72 309.134Z" fill="#A49D68"/>
<path d="M144.714 108.668C145.319 108.89 145.924 109.112 146.548 109.34C142.707 112.233 138.719 114.836 134.615 117.404C126.769 122.32 119.536 127.387 112.7 133.429C110.512 135.184 110.512 135.184 108.328 135.184C108.035 135.763 107.742 136.342 107.441 136.939C106.128 139.188 104.683 140.955 102.868 142.888C102.305 143.497 101.742 144.107 101.162 144.736C99.592 146.118 99.592 146.118 97.408 146.118C97.1377 146.659 96.8675 147.199 96.589 147.757C94.931 150.596 92.9271 153.08 90.856 155.685C86.6884 161.046 83.0249 166.593 79.5265 172.335C78.8445 173.451 78.8445 173.451 78.1487 174.589C75.5421 178.928 73.2565 183.289 71.2 187.866C70.1189 187.866 69.0379 187.866 67.924 187.866C68.6524 183.49 70.1965 179.905 72.292 175.938C73.3731 175.446 73.3731 175.446 74.476 174.944C74.476 173.632 74.476 172.32 74.476 170.968C75.5239 169.935 76.6261 168.948 77.752 167.986C79.0869 166.061 80.3785 164.111 81.6423 162.146C89.2493 150.741 98.0988 141.241 108.396 131.767C109.312 130.919 110.228 130.072 111.172 129.198C116.159 124.694 121.115 120.833 127.094 117.463C129.23 116.297 129.23 116.297 131.26 114.31C133.007 113.216 134.785 112.164 136.584 111.142C137.998 110.321 137.998 110.321 139.441 109.484C142.18 108.346 142.18 108.346 144.714 108.668Z" fill="#A29767"/>
<path d="M251.124 161.925C252.095 161.928 253.067 161.931 254.067 161.935C255.072 161.943 256.077 161.951 257.113 161.96C258.135 161.964 259.157 161.969 260.21 161.973C262.727 161.985 265.243 162.001 267.76 162.022C267.76 162.35 267.76 162.678 267.76 163.016C266.172 163.089 266.172 163.089 264.552 163.164C253.898 163.692 243.386 164.68 232.816 165.998C232.816 166.654 232.816 167.31 232.816 167.986C233.537 168.314 234.257 168.642 235 168.98C235 169.636 235 170.292 235 170.968C236.282 171.018 237.564 171.068 238.885 171.119C243.706 171.308 248.528 171.507 253.349 171.708C255.423 171.794 257.498 171.876 259.572 171.957C271.173 172.407 282.538 172.967 293.968 174.944C293.968 175.272 293.968 175.6 293.968 175.938C286.7 176.039 279.631 175.648 272.401 175.006C262.819 174.189 253.265 173.621 243.643 173.383C239.621 173.254 236.312 173.017 232.436 171.939C226.746 170.554 221.272 170.758 215.412 170.844C213.667 170.857 213.667 170.857 211.887 170.871C209.035 170.894 206.184 170.927 203.332 170.968C202.972 171.624 202.611 172.28 202.24 172.956C198.964 170.968 198.964 170.968 198.213 168.359C198.101 167.58 197.988 166.801 197.872 165.998C203.319 164.392 208.252 163.699 213.992 163.633C214.77 163.616 215.549 163.6 216.351 163.582C218.814 163.53 221.276 163.49 223.739 163.451C226.213 163.407 228.687 163.361 231.161 163.309C233.397 163.263 235.633 163.226 237.869 163.189C242.42 162.975 246.541 161.898 251.124 161.925Z" fill="#FADE63"/>
<path d="M272.128 75.544C273.519 75.8041 274.91 76.0642 276.342 76.3322C283.652 77.7631 283.652 77.7631 286.324 78.526C286.865 79.5101 286.865 79.5101 287.416 80.514C288.497 80.186 289.578 79.858 290.692 79.52C290.692 80.176 290.692 80.8321 290.692 81.508C291.773 81.18 292.854 80.852 293.968 80.514C295.765 81.1483 297.558 81.7987 299.304 82.5408C302.9 84.0289 306.61 85.2476 310.305 86.5129C312.532 87.472 312.532 87.472 313.624 89.46C316.932 90.1138 316.932 90.1138 320.176 90.454C320.176 91.11 320.176 91.7661 320.176 92.442C321.077 92.6675 321.978 92.893 322.906 93.1254C327.454 94.6779 331.642 96.6451 335.464 99.4C335.464 100.056 335.464 100.712 335.464 101.388C329.854 100.832 325.615 98.3218 320.79 95.8589C294.659 83.0234 266.202 76.9607 236.638 75.9789C235.427 75.936 234.217 75.893 232.97 75.8488C230.007 75.7442 227.043 75.6426 224.08 75.544C224.08 75.216 224.08 74.888 224.08 74.55C220.837 74.058 220.837 74.058 217.528 73.556C217.528 73.228 217.528 72.9 217.528 72.562C235.811 70.0965 254.18 72.0549 272.128 75.544Z" fill="#A29867"/>
<path d="M260.116 216.692C263.21 219.013 265.851 221.421 267.76 224.644C267.317 229.668 264.747 233.644 260.555 236.956C259.96 237.383 259.365 237.81 258.751 238.249C257.76 239.008 256.769 239.766 255.748 240.548C255.748 241.532 255.748 242.516 255.748 243.53C255.027 243.53 254.307 243.53 253.564 243.53C253.564 242.218 253.564 240.906 253.564 239.554C252.843 239.554 252.123 239.554 251.38 239.554C251.38 238.898 251.38 238.242 251.38 237.566C252.101 237.566 252.821 237.566 253.564 237.566C253.902 236.951 254.24 236.336 254.588 235.702C255.339 234.336 256.089 232.969 256.84 231.602C255.646 231.561 254.453 231.52 253.223 231.478C249.196 230.608 249.196 230.608 246.944 227.937C245.704 223.95 246.048 222.342 248.104 218.68C251.761 214.858 255.017 215.197 260.116 216.692Z" fill="#E5E5E5"/>
<path d="M393.34 309.134C394.421 309.134 395.502 309.134 396.616 309.134C395.535 312.742 394.454 316.35 393.34 320.068C392.619 320.068 391.899 320.068 391.156 320.068C391.156 321.38 391.156 322.692 391.156 324.044C390.435 324.044 389.715 324.044 388.972 324.044C388.657 324.946 388.341 325.848 388.017 326.778C387.044 329.334 386.007 331.612 384.604 333.984C383.883 333.984 383.163 333.984 382.42 333.984C382.151 334.687 381.882 335.391 381.605 336.116C376.144 347.437 364.587 357.175 355.12 365.792C354.242 366.797 353.363 367.801 352.458 368.836C349.584 371.835 346.773 373.603 343.108 375.732C341.613 377.021 340.141 378.335 338.74 379.708C337.299 379.052 335.857 378.396 334.372 377.72C335.205 377.125 336.039 376.531 336.897 375.918C339.737 373.903 339.737 373.903 341.675 372.005C343.108 370.762 343.108 370.762 345.292 370.762C345.652 369.778 346.013 368.794 346.384 367.78C347.903 366.456 347.903 366.456 349.933 364.984C369.206 350.024 383.744 330.401 393.34 309.134Z" fill="#A59A66"/>
<path d="M142.18 384.678C143.251 385.183 144.322 385.688 145.426 386.208C177.512 401.18 207.934 406.636 243.736 407.54C243.736 408.524 243.736 409.508 243.736 410.522C206.131 411.165 172.925 404.386 139.996 387.66C140.717 387.332 141.437 387.004 142.18 386.666C142.18 386.01 142.18 385.354 142.18 384.678Z" fill="#A89D64"/>
<path d="M407.536 222.656C409.412 226.071 408.759 229.996 408.735 233.753C408.733 234.655 408.732 235.557 408.73 236.486C408.724 239.372 408.71 242.259 408.696 245.145C408.691 247.1 408.686 249.054 408.681 251.008C408.669 255.805 408.65 260.601 408.628 265.398C408.268 265.398 407.907 265.398 407.536 265.398C406.881 253.134 406.234 240.901 406.444 228.62C406.027 230.266 405.664 231.925 405.352 233.59C405.712 233.918 406.073 234.246 406.444 234.584C406.84 238.406 407.005 240.725 404.738 244.027C402.076 245.518 402.076 245.518 398.186 245.456C392.818 244.123 392.818 244.123 391.156 241.542C390.61 238.684 390.61 238.684 391.156 235.578C393.34 233.217 393.34 233.217 396.616 230.608C398.146 229.184 399.669 227.755 401.189 226.321C405.082 222.656 405.082 222.656 407.536 222.656Z" fill="#CDCDCD"/>
<path d="M51.544 309.134C52.6251 309.462 53.7062 309.79 54.82 310.128C56.246 312.766 57.4989 315.361 58.7103 318.08C67.3752 336.561 79.3525 354.494 95.7188 368.176C97.408 369.768 97.408 369.768 97.408 371.756C98.4891 372.084 99.5702 372.412 100.684 372.75C100.143 374.226 100.143 374.226 99.592 375.732C98.1506 375.076 96.7091 374.42 95.224 373.744C95.224 373.088 95.224 372.432 95.224 371.756C94.5033 371.756 93.7826 371.756 93.04 371.756C93.04 371.1 93.04 370.444 93.04 369.768C92.0575 369.381 92.0575 369.381 91.0552 368.987C88.4765 367.681 87.2618 366.502 85.4856 364.379C84.9096 363.695 84.3336 363.011 83.7401 362.306C83.1379 361.57 82.5357 360.834 81.9153 360.077C81.2856 359.314 80.6559 358.551 80.0072 357.766C72.0325 348.012 65.0524 337.909 58.7103 327.212C58.2455 326.441 57.7807 325.669 57.3018 324.873C54.2989 319.681 52.6995 314.91 51.544 309.134Z" fill="#9D9360"/>
<path d="M171.664 165.998C172.385 165.998 173.105 165.998 173.848 165.998C175.076 171.714 175.076 171.714 173.848 173.95C162.585 174.207 151.438 173.829 140.201 173.08C138.957 173.002 137.714 172.924 136.433 172.844C135.259 172.76 134.086 172.677 132.877 172.591C131.828 172.518 130.78 172.445 129.7 172.37C126.899 171.963 124.964 171.261 122.524 169.974C124.208 168.441 125.804 168.819 128.151 168.776C129.112 168.756 130.074 168.736 131.065 168.716C132.111 168.699 133.156 168.683 134.233 168.665C135.298 168.645 136.363 168.624 137.46 168.603C140.876 168.538 144.292 168.479 147.708 168.421C150.018 168.378 152.328 168.335 154.638 168.291C160.313 168.184 165.988 168.083 171.664 167.986C171.664 167.33 171.664 166.674 171.664 165.998Z" fill="#AD9C59"/>
<path d="M363.856 225.638C364.577 225.966 365.297 226.294 366.04 226.632C365.68 227.288 365.319 227.944 364.948 228.62C365.669 229.276 366.389 229.932 367.132 230.608C369.652 234.834 369.541 237.913 368.224 242.536C366.45 244.524 366.45 244.524 363.856 245.518C356.947 245.193 356.947 245.193 354.028 242.536C352.882 239.568 352.675 238.131 354.028 235.205C356.969 231.691 360.343 228.678 363.856 225.638Z" fill="#E0E0E0"/>
<path d="M247.298 329.864C248.684 329.857 250.069 329.851 251.497 329.844C253.008 329.843 254.519 329.842 256.03 329.841C257.589 329.838 259.148 329.834 260.706 329.831C263.976 329.825 267.246 329.823 270.516 329.824C274.679 329.824 278.842 329.81 283.006 329.793C286.228 329.782 289.451 329.78 292.674 329.781C294.207 329.779 295.741 329.775 297.274 329.767C305.903 329.728 313.981 330.021 322.36 331.996C322.36 332.324 322.36 332.652 322.36 332.99C294.973 332.99 267.585 332.99 239.368 332.99C239.008 333.974 238.647 334.958 238.276 335.972C236.114 335.316 233.952 334.66 231.724 333.984C236.84 330.159 240.763 329.884 247.298 329.864Z" fill="#CFBB60"/>
<path d="M300.52 411.516C297.385 414.743 295.081 416.11 290.5 417.15C289.415 417.402 288.331 417.654 287.213 417.913C286.087 418.16 284.96 418.406 283.799 418.66C282.685 418.919 281.57 419.177 280.423 419.443C274.761 420.732 269.189 421.788 263.392 422.45C262.615 422.62 261.838 422.79 261.037 422.965C256.875 423.607 252.768 423.566 248.56 423.541C247.227 423.539 247.227 423.539 245.866 423.537C243.04 423.531 240.215 423.519 237.389 423.506C235.467 423.501 233.545 423.497 231.624 423.493C226.925 423.482 222.227 423.464 217.528 423.444C217.528 423.116 217.528 422.788 217.528 422.45C218.257 422.441 218.985 422.431 219.736 422.422C246.714 421.994 274.678 410.88 300.52 411.516Z" fill="#AFA56E"/>
<path d="M177.124 415.492C184.592 415.966 191.849 417.058 199.184 418.37C206.491 419.674 213.543 420.573 220.996 420.672C222.454 420.7 223.912 420.728 225.37 420.757C227.64 420.798 229.909 420.835 232.179 420.861C234.389 420.888 236.599 420.935 238.809 420.982C240.778 421.012 240.778 421.012 242.786 421.042C243.82 421.179 244.854 421.315 245.92 421.456C247.001 422.932 247.001 422.932 248.104 424.438C246.148 424.609 244.191 424.773 242.235 424.935C241.145 425.027 240.055 425.12 238.933 425.215C228.755 425.777 219.154 425.038 209.065 423.693C207.717 423.515 206.368 423.337 204.979 423.153C186.14 420.562 186.14 420.562 178.216 417.48C177.856 416.824 177.495 416.168 177.124 415.492Z" fill="#89804F"/>
<path d="M385.696 142.142C388.426 143.944 388.426 143.944 391.156 146.118C391.156 147.102 391.156 148.086 391.156 149.1C391.877 149.1 392.597 149.1 393.34 149.1C394.061 151.068 394.781 153.036 395.524 155.064C396.245 155.064 396.965 155.064 397.708 155.064C397.843 155.864 397.978 156.663 398.117 157.487C398.343 158.327 398.568 159.168 398.8 160.034C399.521 160.362 400.241 160.69 400.984 161.028C403.487 164.511 405.55 168.185 407.604 171.9C408.157 172.893 408.711 173.886 409.281 174.909C411.556 179.391 412.996 182.898 412.996 187.866C411.915 187.866 410.834 187.866 409.72 187.866C409.082 186.33 409.082 186.33 408.432 184.764C402.615 171.142 395.103 158.549 385.547 146.778C385.236 146.232 384.924 145.686 384.604 145.124C384.964 144.14 385.325 143.156 385.696 142.142Z" fill="#999360"/>
<path d="M278.68 93.436C288.956 94.3938 288.956 94.3938 293.968 95.424C293.968 96.08 293.968 96.7361 293.968 97.412C295.049 97.084 296.13 96.756 297.244 96.418C300.179 97.3499 300.179 97.3499 302.704 98.406C302.704 99.062 302.704 99.7181 302.704 100.394C304.01 100.722 305.317 101.05 306.662 101.388C311.634 102.896 316.097 104.968 320.654 107.29C321.325 107.624 321.997 107.957 322.689 108.301C326.315 110.198 328.638 111.624 330.004 115.304C326.759 114.688 324.314 113.738 321.473 112.198C310.144 106.353 298.237 101.791 286.026 97.7192C279.887 95.6325 279.887 95.6325 278.68 93.436Z" fill="#A29966"/>
<path d="M203.332 159.04C204.086 159.363 204.839 159.685 205.616 160.017C209.244 161.172 212.093 161.285 215.933 161.292C217.342 161.296 218.751 161.3 220.202 161.304C221.722 161.295 223.242 161.286 224.763 161.276C225.532 161.275 226.301 161.273 227.094 161.271C240.472 161.235 253.71 160.546 267.039 159.475C272.4 159.054 277.669 158.958 283.048 159.04C283.048 159.696 283.048 160.352 283.048 161.028C279.271 162.174 276.184 162.214 272.201 162.302C271.096 162.329 271.096 162.329 269.969 162.357C267.618 162.415 265.266 162.468 262.914 162.519C259.822 162.586 256.729 162.66 253.637 162.736C252.262 162.767 250.888 162.797 249.471 162.828C246.132 162.902 246.132 162.902 243.808 163.506C240.153 164.322 236.425 164.29 232.68 164.394C231.823 164.42 230.967 164.445 230.085 164.471C228.279 164.523 226.473 164.572 224.667 164.619C221.905 164.693 219.145 164.783 216.385 164.874C214.627 164.922 212.87 164.969 211.113 165.016C210.289 165.045 209.465 165.073 208.617 165.103C204.473 165.194 201.38 165.154 197.872 163.016C198.953 162.36 200.034 161.704 201.148 161.028C202.229 161.356 203.31 161.684 204.424 162.022C204.064 161.038 203.703 160.054 203.332 159.04Z" fill="#C7B363"/>
<path d="M141.088 176.932C140.367 177.588 139.647 178.244 138.904 178.92C154.76 179.576 170.616 180.232 186.952 180.908C182.596 182.89 180.967 183.142 176.284 183.125C175.051 183.124 173.818 183.123 172.548 183.122C171.242 183.109 169.937 183.096 168.593 183.082C167.26 183.074 165.926 183.065 164.553 183.056C135.098 182.791 135.098 182.791 122.524 178.92C122.164 178.264 121.803 177.608 121.432 176.932C123.683 176.737 125.936 176.553 128.189 176.373C130.07 176.217 130.07 176.217 131.989 176.058C135.285 175.949 137.909 176.196 141.088 176.932Z" fill="#A79656"/>
<path d="M180.4 330.008C180.4 330.336 180.4 330.664 180.4 331.002C176.442 331.031 172.483 331.049 168.525 331.064C166.833 331.077 166.833 331.077 165.108 331.089C164.031 331.093 162.954 331.096 161.845 331.099C160.352 331.107 160.352 331.107 158.829 331.115C156.376 331.002 156.376 331.002 154.192 330.008C151.603 329.779 149.008 329.599 146.412 329.449C145.012 329.366 143.613 329.282 142.171 329.197C140.554 329.106 140.554 329.106 138.904 329.014C138.904 329.67 138.904 330.326 138.904 331.002C141.066 331.002 143.228 331.002 145.456 331.002C141.583 333.352 139.121 333.372 134.6 333.642C132.113 333.817 132.113 333.817 130.168 335.972C129.986 339.037 129.986 339.037 130.168 341.936C129.087 342.428 129.087 342.428 127.984 342.93C126.527 336.783 126.527 336.783 128.121 333.239C139.363 320.958 165.583 328.058 180.4 330.008Z" fill="#BBA957"/>
<path d="M367.132 348.894C367.492 348.894 367.853 348.894 368.224 348.894C368.572 351.988 368.617 353.396 366.505 355.914C365.743 356.55 364.982 357.185 364.197 357.84C363.399 358.523 362.601 359.206 361.779 359.91C361.023 360.539 360.267 361.168 359.488 361.816C356.748 364.254 354.222 366.552 351.912 369.333C349.306 372.136 346.486 373.746 343.108 375.732C341.613 377.021 340.141 378.335 338.74 379.708C337.299 379.052 335.857 378.396 334.372 377.72C335.205 377.125 336.039 376.531 336.897 375.918C339.737 373.903 339.737 373.903 341.675 372.005C343.108 370.762 343.108 370.762 345.292 370.762C345.652 369.778 346.013 368.794 346.384 367.78C347.979 366.386 347.979 366.386 350.07 364.86C354.887 361.168 359.03 357.056 363.207 352.783C364.496 351.471 365.812 350.18 367.132 348.894Z" fill="#9B9562"/>
<path d="M143.818 153.014C144.82 153.018 145.822 153.023 146.855 153.027C149.301 153.039 151.746 153.055 154.192 153.076C154.192 153.732 154.192 154.388 154.192 155.064C155.947 155.137 155.947 155.137 157.737 155.212C159.262 155.286 160.788 155.361 162.314 155.437C163.086 155.468 163.858 155.498 164.653 155.53C166.632 155.633 168.604 155.839 170.572 156.058C171.113 157.042 171.113 157.042 171.664 158.046C166.07 157.928 160.475 157.804 154.881 157.676C152.981 157.633 151.081 157.592 149.181 157.552C146.438 157.494 143.695 157.431 140.951 157.367C139.693 157.342 139.693 157.342 138.41 157.316C133.048 157.185 127.837 156.732 122.524 156.058C122.884 155.402 123.245 154.746 123.616 154.07C130.345 152.953 136.996 152.955 143.818 153.014Z" fill="#EBD97E"/>
<path d="M182.584 94.43C182.584 95.086 182.584 95.7421 182.584 96.418C181.251 96.8396 179.918 97.2611 178.544 97.6954C168.599 100.902 159.336 104.254 150.229 109.154C149.375 109.543 148.52 109.933 147.64 110.334C145.456 109.34 145.456 109.34 144.364 107.352C146.293 106.35 148.228 105.358 150.165 104.37C151.242 103.816 152.319 103.263 153.428 102.693C156.376 101.388 156.376 101.388 159.652 101.388C159.652 100.732 159.652 100.076 159.652 99.4C162.623 98.4088 165.595 97.4224 168.571 96.4452C170.861 95.6891 173.142 94.9103 175.418 94.1194C178.34 93.4057 179.79 93.4517 182.584 94.43Z" fill="#97925B"/>
<path d="M135.206 160.931C136.568 160.934 137.93 160.937 139.333 160.941C140.745 160.949 142.158 160.957 143.613 160.966C145.764 160.973 145.764 160.973 147.958 160.979C151.492 160.991 155.026 161.008 158.56 161.028C156.398 162.012 156.398 162.012 154.192 163.016C162.3 164 162.3 164 170.572 165.004C169.851 165.66 169.131 166.316 168.388 166.992C166.337 166.638 166.337 166.638 164.02 165.998C160.849 165.78 157.692 165.604 154.516 165.466C153.601 165.423 152.686 165.381 151.744 165.337C148.829 165.201 145.914 165.072 142.999 164.942C141.02 164.851 139.04 164.76 137.061 164.668C132.216 164.445 127.37 164.226 122.524 164.01C122.524 163.354 122.524 162.698 122.524 162.022C126.819 161.097 130.798 160.913 135.206 160.931Z" fill="#9C8E5C"/>
<path d="M277.588 403.564C277.228 404.548 276.867 405.532 276.496 406.546C274.859 406.861 273.221 407.17 271.582 407.478C270.214 407.737 270.214 407.737 268.818 408.002C259.152 409.588 249.706 409.646 239.914 409.59C238.376 409.585 236.837 409.581 235.299 409.577C231.559 409.565 227.82 409.549 224.08 409.528C224.08 409.2 224.08 408.872 224.08 408.534C225.208 408.508 226.335 408.483 227.497 408.456C238.591 408.099 249.249 406.859 260.148 404.928C266.087 403.897 271.54 403.363 277.588 403.564Z" fill="#CBBB7C"/>
<path d="M263.392 74.55C263.392 75.5341 263.392 76.5181 263.392 77.532C250.419 76.876 237.446 76.2199 224.08 75.544C224.08 75.216 224.08 74.888 224.08 74.55C220.837 74.058 220.837 74.058 217.528 73.556C217.528 73.228 217.528 72.9 217.528 72.562C232.216 70.5813 249.13 70.4932 263.392 74.55Z" fill="#7B6F41"/>
<path d="M64.648 158.046C66.0894 158.374 67.5309 158.702 69.016 159.04C66.9066 164.164 64.1337 168.949 61.3827 173.804C58.8177 178.399 56.7252 183.011 54.82 187.866C53.3786 187.538 51.9371 187.21 50.452 186.872C50.8124 185.232 51.1727 183.592 51.544 181.902C52.2647 181.902 52.9854 181.902 53.728 181.902C54.4487 178.95 55.1694 175.998 55.912 172.956C56.6327 172.956 57.3534 172.956 58.096 172.956C58.8167 170.332 59.5374 167.708 60.28 165.004C61.0007 165.004 61.7214 165.004 62.464 165.004C63.1847 162.708 63.9054 160.412 64.648 158.046Z" fill="#9C925E"/>
<path d="M211.931 87.9069C213.19 88.0081 214.448 88.1093 215.745 88.2136C216.694 88.2969 217.642 88.3802 218.62 88.466C218.62 88.794 218.62 89.122 218.62 89.46C217.849 89.6053 217.078 89.7507 216.283 89.9005C212.785 90.5604 209.287 91.2216 205.789 91.8829C204.576 92.1116 203.362 92.3403 202.112 92.576C200.944 92.797 199.775 93.018 198.572 93.2457C196.959 93.5503 196.959 93.5503 195.314 93.8609C193.532 94.2104 191.755 94.5832 189.989 94.9949C187.736 95.4919 185.718 95.5212 183.403 95.4861C181.376 95.4554 181.376 95.4554 179.308 95.424C180.389 95.096 181.47 94.768 182.584 94.43C182.944 93.4459 183.305 92.4619 183.676 91.448C184.802 91.325 185.928 91.202 187.088 91.0752C190.926 90.5119 194.208 89.6014 197.872 88.466C202.739 87.5172 206.983 87.4932 211.931 87.9069Z" fill="#9A9059"/>
<path d="M409.72 309.134C411.161 309.462 412.603 309.79 414.088 310.128C401.199 338.359 401.199 338.359 395.524 340.942C396.905 335.107 398.935 330.293 402.008 325.038C405.019 319.831 407.55 314.683 409.72 309.134Z" fill="#ACA472"/>
<path d="M334.372 160.034C335.813 160.69 337.255 161.346 338.74 162.022C339.39 167.051 339.603 169.961 336.078 174.074C332.934 176.085 330.635 176.115 326.865 175.752C325.357 175.509 323.853 175.249 322.36 174.944C322.36 174.616 322.36 174.288 322.36 173.95C325.603 173.95 328.846 173.95 332.188 173.95C332.188 172.966 332.188 171.982 332.188 170.968C331.467 170.968 330.747 170.968 330.004 170.968C329.322 168.607 329.322 168.607 328.912 165.998C329.633 165.342 330.353 164.686 331.096 164.01C332.537 164.01 333.979 164.01 335.464 164.01C335.104 162.698 334.743 161.386 334.372 160.034Z" fill="#E8CF5B"/>
<path d="M144.705 108.672C145.313 108.893 145.921 109.113 146.548 109.34C141.764 112.931 136.742 116.166 131.669 119.404C130.836 119.939 130.003 120.473 129.144 121.023C125.865 123.123 122.584 125.208 119.248 127.232C118.167 126.576 117.086 125.92 115.972 125.244C117.7 123.98 119.429 122.717 121.159 121.454C122.122 120.751 123.085 120.047 124.077 119.323C128.172 116.369 132.292 113.611 136.72 111.08C137.643 110.541 138.567 110.003 139.518 109.449C142.18 108.346 142.18 108.346 144.705 108.672Z" fill="#948A59"/>
<path d="M219.507 339.886C220.776 340.079 222.044 340.273 223.351 340.472C224.312 340.627 225.273 340.782 226.264 340.942C226.264 341.27 226.264 341.598 226.264 341.936C224.613 342.019 224.613 342.019 222.929 342.103C218.797 342.31 214.666 342.52 210.535 342.731C208.755 342.821 206.976 342.911 205.197 343C192.207 343.63 192.207 343.63 179.257 344.732C175.987 345.017 172.763 344.983 169.48 344.918C169.12 344.262 168.759 343.606 168.388 342.93C170.086 342.84 170.086 342.84 171.818 342.747C173.313 342.664 174.809 342.579 176.305 342.495C177.05 342.456 177.794 342.417 178.562 342.377C182.788 342.144 182.788 342.144 186.939 341.435C190.503 340.635 194.151 340.609 197.804 340.445C203.654 340.215 203.654 340.215 209.423 339.362C212.976 338.814 215.967 339.333 219.507 339.886Z" fill="#C1AD5D"/>
<path d="M146.531 176.641C147.551 176.65 148.572 176.66 149.624 176.67C150.681 176.695 151.738 176.72 152.827 176.746C154.438 176.766 154.438 176.766 156.082 176.786C158.728 176.821 161.374 176.87 164.02 176.932C164.38 177.588 164.741 178.244 165.112 178.92C171.598 179.248 178.085 179.576 184.768 179.914C184.768 180.242 184.768 180.57 184.768 180.908C168.715 181.047 152.749 180.716 136.72 179.914C140.069 177.239 142.094 176.567 146.531 176.641Z" fill="#F5DC77"/>
<path d="M51.544 309.134C54.82 310.128 54.82 310.128 55.9419 311.804C56.2698 312.517 56.5978 313.23 56.9358 313.964C57.3046 314.746 57.6734 315.527 58.0533 316.333C58.615 317.567 58.615 317.567 59.188 318.826C61.4774 323.761 63.7942 328.393 66.832 332.99C67.0368 335.786 67.0368 335.786 66.832 337.96C62.0222 334.333 59.9106 329.712 57.3453 324.665C56.9054 323.832 56.4655 323 56.0122 322.141C53.7774 317.807 52.0535 313.96 51.544 309.134Z" fill="#ACA46C"/>
<path d="M328.912 112.322C329.633 112.322 330.353 112.322 331.096 112.322C332.552 113.647 334.008 114.973 335.464 116.298C336.545 116.626 337.626 116.954 338.74 117.292C339.1 117.948 339.461 118.604 339.832 119.28C340.913 119.608 341.994 119.936 343.108 120.274C344.586 121.579 346.043 122.904 347.476 124.25C348.197 124.578 348.917 124.906 349.66 125.244C349.66 125.9 349.66 126.556 349.66 127.232C350.381 127.232 351.101 127.232 351.844 127.232C351.844 127.888 351.844 128.544 351.844 129.22C352.565 129.22 353.285 129.22 354.028 129.22C353.668 129.876 353.307 130.532 352.936 131.208C350.568 130.705 348.568 130.214 346.384 129.22C346.384 128.564 346.384 127.908 346.384 127.232C345.804 126.994 345.224 126.755 344.627 126.51C341.263 124.879 338.273 122.935 335.191 120.895C334.586 120.511 333.98 120.126 333.357 119.73C331.625 118.573 331.625 118.573 328.912 116.298C328.912 114.986 328.912 113.674 328.912 112.322Z" fill="#9B9362"/>
<path d="M129.076 342.93C129.647 343.093 130.217 343.257 130.805 343.425C134.167 344.061 137.288 343.999 140.721 343.951C142.126 343.939 143.531 343.927 144.978 343.914C147.205 343.89 149.431 343.862 151.657 343.829C153.813 343.799 155.969 343.782 158.125 343.765C160.056 343.74 160.056 343.74 162.026 343.714C165.112 343.924 165.112 343.924 167.296 345.912C164.567 346.25 161.837 346.58 159.106 346.906C158.346 347.001 157.586 347.096 156.803 347.193C149.44 348.062 142.396 348.386 135.082 346.906C134.147 346.721 133.213 346.537 132.25 346.347C131.563 346.203 130.876 346.06 130.168 345.912C129.808 344.928 129.447 343.944 129.076 342.93Z" fill="#C3B161"/>
<path d="M313.146 156.803C314.532 156.783 315.918 156.762 317.346 156.741C318.664 156.736 319.982 156.731 321.34 156.726C322.534 156.717 323.727 156.707 324.956 156.698C325.901 156.815 326.846 156.932 327.82 157.052C328.541 158.036 329.261 159.02 330.004 160.034C307.842 159.542 307.842 159.542 285.232 159.04C285.232 158.712 285.232 158.384 285.232 158.046C294.543 157.107 303.783 156.839 313.146 156.803Z" fill="#D3BD65"/>
<path d="M395.524 336.966C397.708 339.948 397.708 339.948 397.708 341.936C396.987 341.936 396.267 341.936 395.524 341.936C395.29 342.596 395.057 343.256 394.816 343.936C392.834 347.925 390.084 351.187 387.198 354.672C386.634 355.36 386.071 356.049 385.491 356.759C384.109 358.448 382.719 360.133 381.328 361.816C380.968 361.16 380.607 360.504 380.236 359.828C379.515 359.5 378.795 359.172 378.052 358.834C378.673 358.172 379.294 357.509 379.933 356.827C385.766 350.489 390.836 344.06 395.524 336.966Z" fill="#A29B67"/>
<path d="M399.892 164.01C403.125 165.055 404.192 165.899 406.043 168.592C406.581 169.622 407.118 170.652 407.672 171.714C408.216 172.733 408.759 173.753 409.319 174.804C411.488 179.339 412.996 182.885 412.996 187.866C411.915 187.866 410.834 187.866 409.72 187.866C409.194 186.692 408.667 185.519 408.125 184.309C407.428 182.761 406.731 181.213 406.034 179.666C405.688 178.893 405.342 178.12 404.985 177.324C404.478 176.2 404.478 176.2 403.961 175.053C403.653 174.366 403.344 173.679 403.026 172.971C402.095 170.931 402.095 170.931 400.866 168.911C399.892 166.992 399.892 166.992 399.892 164.01Z" fill="#ABA76E"/>
<path d="M217.255 169.788C218.699 169.769 218.699 169.769 220.173 169.751C225.918 169.739 230.656 170.252 236.092 171.962C236.092 172.29 236.092 172.618 236.092 172.956C235.41 172.91 234.728 172.865 234.025 172.817C230.893 172.618 227.76 172.445 224.626 172.273C223.553 172.2 222.481 172.128 221.376 172.053C213.577 171.651 207.741 172.193 201.122 176.322C200.635 176.749 200.148 177.176 199.647 177.615C196.78 179.914 196.78 179.914 194.596 179.914C194.956 178.602 195.317 177.29 195.688 175.938C197.129 175.938 198.571 175.938 200.056 175.938C200.416 174.954 200.777 173.97 201.148 172.956C201.869 172.956 202.589 172.956 203.332 172.956C203.332 172.3 203.332 171.644 203.332 170.968C207.972 169.56 212.395 169.791 217.255 169.788Z" fill="#C3B15F"/>
<path d="M83.212 136.178C83.9327 136.178 84.6534 136.178 85.396 136.178C84.7391 139.305 83.6703 141.209 81.5058 143.695C77.8328 147.986 74.3683 152.395 70.9099 156.831C69.016 159.04 69.016 159.04 66.832 160.034C67.4394 156.036 68.7351 153.592 71.3365 150.342C72.0192 149.489 72.7019 148.636 73.4053 147.757C74.4759 146.453 74.4759 146.453 75.568 145.124C76.2704 144.255 76.9728 143.387 77.6965 142.491C81.5443 137.836 81.5443 137.836 83.212 136.178Z" fill="#B7A670"/>
<path d="M364.948 122.262C368.596 123.737 371.314 125.636 374.298 128.04C375.55 129.033 375.55 129.033 376.828 130.047C379.219 132.272 380.755 134.466 382.42 137.172C383.028 137.869 383.636 138.566 384.263 139.284C385.696 141.148 385.696 141.148 385.696 144.13C384.975 144.13 384.255 144.13 383.512 144.13C382.149 142.732 380.866 141.268 379.622 139.781C375.586 135.05 371.288 130.639 366.791 126.269C364.948 124.25 364.948 124.25 364.948 122.262Z" fill="#948A60"/>
<path d="M217.746 86.3809C219.065 86.3841 220.385 86.3873 221.745 86.3906C223.813 86.4031 223.813 86.4031 225.923 86.4159C228.01 86.4226 228.01 86.4226 230.139 86.4295C233.58 86.4412 237.02 86.4576 240.46 86.478C240.82 87.134 241.181 87.7901 241.552 88.466C236.005 89.8981 230.356 89.9418 224.626 90.2055C223.484 90.2734 222.343 90.3413 221.167 90.4113C219.518 90.4862 219.518 90.4862 217.835 90.5627C216.834 90.6136 215.832 90.6646 214.8 90.7171C211.538 90.403 210.113 89.4361 207.7 87.472C211.301 86.3795 213.957 86.3647 217.746 86.3809Z" fill="#92844C"/>
<path d="M78.844 165.998C79.9251 166.326 81.0062 166.654 82.12 166.992C80.2363 171.567 77.8507 175.871 75.4315 180.225C75.0247 180.961 74.6179 181.697 74.1987 182.455C73.2012 184.26 72.2009 186.063 71.2 187.866C70.1189 187.866 69.0379 187.866 67.924 187.866C68.6524 183.49 70.1965 179.906 72.292 175.938C73.0127 175.61 73.7335 175.282 74.476 174.944C74.476 173.632 74.476 172.32 74.476 170.968C76.0458 169.353 76.0458 169.353 77.752 167.986C78.1124 167.33 78.4727 166.674 78.844 165.998Z" fill="#978B58"/>
<path d="M173.848 79.52C176.1 79.9549 176.1 79.9549 178.216 80.514C178.216 81.17 178.216 81.8261 178.216 82.502C175.063 83.7034 171.898 84.8757 168.729 86.0431C167.838 86.3833 166.946 86.7235 166.027 87.074C157.821 90.0678 157.821 90.0678 153.1 88.466C157.371 85.117 162.167 83.8429 167.439 82.2224C170.918 81.3149 170.918 81.3149 173.848 79.52Z" fill="#978C58"/>
<path d="M103.96 356.846C110.258 361.707 116.403 366.711 122.524 371.756C121.443 372.412 120.362 373.068 119.248 373.744C117.786 372.799 116.331 371.845 114.88 370.886C114.069 370.356 113.258 369.825 112.423 369.279C111.792 368.784 111.162 368.29 110.512 367.78C110.512 367.124 110.512 366.468 110.512 365.792C109.791 365.792 109.071 365.792 108.328 365.792C106.92 364.27 106.92 364.27 105.461 362.313C104.974 361.667 104.487 361.021 103.986 360.356C103.617 359.854 103.248 359.352 102.868 358.834C103.228 358.178 103.589 357.522 103.96 356.846Z" fill="#A09A69"/>
<path d="M138.153 328.331C138.761 328.556 139.369 328.782 139.996 329.014C139.636 329.67 139.275 330.326 138.904 331.002C141.066 331.002 143.228 331.002 145.456 331.002C141.583 333.352 139.121 333.372 134.6 333.642C132.113 333.817 132.113 333.817 130.168 335.972C129.986 339.037 129.986 339.037 130.168 341.936C129.087 342.428 129.087 342.428 127.984 342.93C126.527 336.783 126.527 336.783 128.121 333.239C130.954 330.143 133.525 327.761 138.153 328.331Z" fill="#EBD063"/>
<path d="M209.884 407.54C221.055 407.54 232.226 407.54 243.736 407.54C243.736 408.524 243.736 409.508 243.736 410.522C240.301 410.551 236.866 410.569 233.43 410.584C232.471 410.592 231.512 410.601 230.523 410.609C217.449 410.653 217.449 410.653 212.068 409.528C211.347 408.872 210.627 408.216 209.884 407.54Z" fill="#95854F"/>
<path d="M328.912 344.918C324.725 347.237 320.153 347.792 315.399 348.521C314.588 348.655 313.777 348.788 312.942 348.925C308.381 349.644 304.076 350.036 299.428 349.888C300.861 347.9 300.861 347.9 303.796 345.912C306.839 345.661 309.751 345.726 312.801 345.869C318.221 345.946 323.408 344.82 328.912 344.918Z" fill="#C6B25E"/>
<path d="M171.664 161.028C172.024 162.668 172.385 164.308 172.756 165.998C165.188 165.014 157.621 164.03 149.824 163.016C149.824 162.688 149.824 162.36 149.824 162.022C157.137 160.998 164.273 160.927 171.664 161.028Z" fill="#F4DC74"/>
<path d="M315.808 403.564C317.992 404.558 317.992 404.558 319.084 406.546C312.667 409.575 306.172 412.133 299.428 414.498C299.068 413.186 298.707 411.874 298.336 410.522C301.198 409.332 304.065 408.153 306.936 406.981C308.158 406.471 308.158 406.471 309.405 405.95C311.512 405.095 313.658 404.323 315.808 403.564Z" fill="#948855"/>
<path d="M251.38 230.608C254.519 230.422 254.519 230.422 257.932 230.608C258.653 231.592 259.373 232.576 260.116 233.59C261.557 232.934 262.999 232.278 264.484 231.602C263.249 234.637 261.63 236.182 258.887 238.125C257.851 238.925 256.815 239.724 255.748 240.548C255.748 241.532 255.748 242.516 255.748 243.53C255.027 243.53 254.307 243.53 253.564 243.53C253.564 242.218 253.564 240.906 253.564 239.554C252.843 239.554 252.123 239.554 251.38 239.554C251.38 238.898 251.38 238.242 251.38 237.566C252.101 237.566 252.821 237.566 253.564 237.566C253.902 236.951 254.24 236.336 254.588 235.702C255.338 234.335 256.089 232.969 256.84 231.602C255.038 231.602 253.236 231.602 251.38 231.602C251.38 231.274 251.38 230.946 251.38 230.608Z" fill="#C0C0C0"/>
<path d="M283.048 159.04C283.048 159.696 283.048 160.352 283.048 161.028C279.15 162.211 275.623 162.146 271.569 162.119C270.774 162.118 269.979 162.116 269.159 162.115C266.623 162.109 264.086 162.097 261.549 162.084C259.828 162.079 258.107 162.075 256.386 162.071C252.169 162.06 247.953 162.042 243.736 162.022C243.736 161.694 243.736 161.366 243.736 161.028C248.445 160.691 253.154 160.362 257.864 160.034C259.188 159.939 260.512 159.844 261.876 159.747C268.958 159.258 275.946 158.928 283.048 159.04Z" fill="#A2924C"/>
<path d="M319.084 90.454C319.444 91.11 319.805 91.7661 320.176 92.442C321.099 92.7085 322.023 92.975 322.974 93.2496C327.547 94.6875 331.659 96.6575 335.464 99.4C335.464 100.056 335.464 100.712 335.464 101.388C330.542 100.789 326.882 99.0362 322.565 96.8529C321.912 96.5255 321.26 96.1981 320.588 95.8608C318.991 95.0585 317.399 94.2481 315.808 93.436C316.889 92.4519 317.97 91.4679 319.084 90.454Z" fill="#9C9160"/>
<path d="M380.236 359.828C378.849 364.456 375.948 366.936 372.217 370.117C370.179 371.855 370.179 371.855 368.224 374.738C367.143 374.738 366.062 374.738 364.948 374.738C366.486 370.284 368.866 367.953 372.592 364.798C373.56 363.875 374.529 362.953 375.527 362.002C378.052 359.828 378.052 359.828 380.236 359.828Z" fill="#A7A06D"/>
<path d="M193.504 404.558C195.916 404.699 198.327 404.845 200.739 404.993C202.081 405.074 203.424 405.154 204.808 405.237C208.372 405.519 211.827 405.96 215.344 406.546C213.992 408.049 213.992 408.049 212.068 409.528C209.905 409.672 209.905 409.672 207.495 409.342C206.637 409.226 205.778 409.111 204.893 408.992C201.041 408.327 197.287 407.485 193.504 406.546C193.504 405.89 193.504 405.234 193.504 404.558Z" fill="#A49465"/>
<path d="M87.58 362.81C91.7507 364.357 94.4164 366.742 97.408 369.768C97.408 370.424 97.408 371.08 97.408 371.756C98.4891 372.084 99.5701 372.412 100.684 372.75C100.324 373.734 99.9633 374.718 99.592 375.732C98.1505 375.076 96.7091 374.42 95.224 373.744C95.224 373.088 95.224 372.432 95.224 371.756C94.5033 371.756 93.7825 371.756 93.04 371.756C93.04 371.1 93.04 370.444 93.04 369.768C92.3418 369.542 91.6436 369.317 90.9242 369.085C88.672 367.78 88.672 367.78 87.853 365.171C87.7629 364.392 87.6728 363.613 87.58 362.81Z" fill="#968C5B"/>
<path d="M334.372 395.612C334.372 396.596 334.372 397.58 334.372 398.594C331.659 400.442 331.659 400.442 328.093 402.321C326.927 402.952 325.762 403.582 324.561 404.232C321.268 405.552 321.268 405.552 318.657 405.257C317.787 404.911 317.787 404.911 316.9 404.558C319.624 401.759 322.65 400.175 326.25 398.408C327.31 397.881 328.37 397.354 329.462 396.812C332.188 395.612 332.188 395.612 334.372 395.612Z" fill="#AFA670"/>
<path d="M201.148 156.058C202.229 157.534 202.229 157.534 203.332 159.04C201.891 159.368 200.449 159.696 198.964 160.034C198.964 159.378 198.964 158.722 198.964 158.046C197.68 157.759 196.396 157.472 195.074 157.176C190.881 156.224 186.732 155.171 182.584 154.07C182.584 153.742 182.584 153.414 182.584 153.076C190.003 151.662 194.581 152.604 201.148 156.058Z" fill="#CAB85F"/>
<path d="M172.453 152.979C174.258 152.996 174.258 152.996 176.1 153.014C177.307 153.023 178.513 153.032 179.756 153.041C180.689 153.053 181.622 153.064 182.584 153.076C182.584 153.404 182.584 153.732 182.584 154.07C178.98 154.07 175.377 154.07 171.664 154.07C172.385 156.038 173.105 158.006 173.848 160.034C172.756 161.028 172.756 161.028 170.499 161.125C169.6 161.114 168.7 161.102 167.774 161.09C166.871 161.081 165.969 161.072 165.039 161.063C164.343 161.051 163.646 161.04 162.928 161.028C163.288 160.372 163.649 159.716 164.02 159.04C162.218 158.712 160.416 158.384 158.56 158.046C158.56 157.718 158.56 157.39 158.56 157.052C162.524 157.052 166.488 157.052 170.572 157.052C170.572 156.396 170.572 155.74 170.572 155.064C169.851 154.736 169.131 154.408 168.388 154.07C169.48 153.076 169.48 153.076 172.453 152.979Z" fill="#A6913E"/>
<path d="M248.718 87.2856C250.578 87.2952 250.578 87.2952 252.476 87.305C255.748 87.472 255.748 87.472 259.024 88.466C259.024 89.122 259.024 89.7781 259.024 90.454C244.136 90.6374 244.136 90.6374 237.184 89.46C241.055 87.2699 244.217 87.2343 248.718 87.2856Z" fill="#B6A96E"/>
<path d="M141.088 153.076C141.088 153.404 141.088 153.732 141.088 154.07C138.565 154.07 136.043 154.07 133.444 154.07C133.444 154.726 133.444 155.382 133.444 156.058C139.21 156.058 144.976 156.058 150.916 156.058C150.916 156.386 150.916 156.714 150.916 157.052C147.822 157.079 144.728 157.099 141.634 157.114C140.338 157.127 140.338 157.127 139.015 157.139C133.414 157.16 128.068 156.793 122.524 156.058C122.884 155.402 123.245 154.746 123.616 154.07C129.489 153.132 135.136 152.979 141.088 153.076Z" fill="#8D8452"/>
<path d="M350.752 130.214C357.336 131.237 359.783 134.61 363.506 139.261C364.22 140.195 364.22 140.195 364.948 141.148C364.227 141.804 363.507 142.46 362.764 143.136C360.755 141.361 358.755 139.579 356.758 137.793C355.899 137.036 355.899 137.036 355.022 136.263C353.557 134.947 352.15 133.578 350.752 132.202C350.752 131.546 350.752 130.89 350.752 130.214Z" fill="#A7A46C"/>
<path d="M143.272 402.57C148.714 402.87 153.694 405.465 158.56 407.54C157.479 408.032 157.479 408.032 156.376 408.534C156.016 409.19 155.655 409.846 155.284 410.522C150.599 408.554 145.915 406.586 141.088 404.558C141.809 403.902 142.529 403.246 143.272 402.57Z" fill="#9B925D"/>
<path d="M346.384 367.78C347.105 368.108 347.825 368.436 348.568 368.774C348.928 369.758 349.289 370.742 349.66 371.756C348.669 372.33 347.678 372.904 346.657 373.496C343.632 375.402 341.23 377.267 338.74 379.708C337.299 379.052 335.857 378.396 334.372 377.72C335.205 377.125 336.039 376.531 336.897 375.918C339.737 373.903 339.737 373.903 341.675 372.005C343.108 370.762 343.108 370.762 345.292 370.762C345.652 369.778 346.013 368.794 346.384 367.78Z" fill="#958756"/>
<path d="M269.944 216.692C274.629 216.692 279.313 216.692 284.14 216.692C284.14 217.02 284.14 217.348 284.14 217.686C280.781 217.977 280.781 217.977 277.422 218.268C276.756 218.404 276.09 218.54 275.404 218.68C274.091 221.071 274.09 222.759 273.966 225.428C273.921 226.364 273.875 227.299 273.828 228.263C273.763 229.731 273.763 229.731 273.698 231.229C273.651 232.216 273.603 233.202 273.555 234.219C273.439 236.66 273.327 239.101 273.22 241.542C272.86 241.542 272.499 241.542 272.128 241.542C272.101 240.895 272.073 240.248 272.045 239.582C271.918 236.653 271.784 233.723 271.65 230.794C271.607 229.776 271.564 228.758 271.52 227.709C271.474 226.732 271.429 225.755 271.382 224.749C271.321 223.398 271.321 223.398 271.26 222.02C271.122 219.524 271.122 219.524 269.944 216.692Z" fill="#AFAFAF"/>
<path d="M376.96 336.966C377.32 336.966 377.681 336.966 378.052 336.966C378.48 340.344 378.22 341.702 376.141 344.596C375.33 345.461 374.519 346.326 373.684 347.217C372.873 348.094 372.062 348.972 371.227 349.876C370.596 350.536 369.966 351.196 369.316 351.876C368.506 350.245 368.506 350.245 368.224 347.9C369.99 345.12 369.99 345.12 372.455 342.185C373.263 341.206 374.071 340.227 374.904 339.218C375.582 338.475 376.261 337.732 376.96 336.966Z" fill="#ACA06D"/>
<path d="M118.156 125.244C118.516 126.228 118.877 127.212 119.248 128.226C117.479 129.557 115.703 130.881 113.924 132.202C112.442 133.309 112.442 133.309 110.93 134.439C108.328 136.178 108.328 136.178 106.144 136.178C107.89 132.046 111.181 129.022 114.88 126.238C115.961 125.91 117.042 125.582 118.156 125.244Z" fill="#AFA570"/>
<path d="M328.912 112.322C329.633 112.322 330.353 112.322 331.096 112.322C332.552 113.647 334.008 114.973 335.464 116.298C336.545 116.626 337.626 116.954 338.74 117.292C339.1 117.948 339.461 118.604 339.832 119.28C340.913 119.608 341.994 119.936 343.108 120.274C342.748 120.93 342.387 121.586 342.016 122.262C335.881 121.863 333.101 120.202 328.912 116.298C328.912 114.986 328.912 113.674 328.912 112.322Z" fill="#8E8651"/>
<path d="M194.596 78.526C194.596 78.854 194.596 79.182 194.596 79.52C192.276 80.0196 189.956 80.516 187.635 81.011C186.342 81.2878 185.05 81.5645 183.719 81.8497C180.4 82.502 180.4 82.502 178.216 82.502C178.216 81.846 178.216 81.1899 178.216 80.514C177.495 80.186 176.775 79.858 176.032 79.52C183.691 77.1961 186.861 76.5639 194.596 78.526Z" fill="#847C50"/>
<path d="M333.28 332.99C336.488 333.735 336.488 333.735 339.832 334.978C340.787 337.09 340.787 337.09 340.924 338.954C334.918 343.924 334.918 343.924 330.004 343.924C330.364 342.94 330.725 341.956 331.096 340.942C332.898 340.614 334.7 340.286 336.556 339.948C336.916 338.636 337.277 337.324 337.648 335.972C336.207 335.644 334.765 335.316 333.28 334.978C333.28 334.322 333.28 333.666 333.28 332.99Z" fill="#CDBC6E"/>
<path d="M405.352 222.656C406.073 222.656 406.793 222.656 407.536 222.656C407.896 223.968 408.257 225.28 408.628 226.632C407.907 226.632 407.187 226.632 406.444 226.632C406.084 227.616 405.723 228.6 405.352 229.614C404.992 228.958 404.631 228.302 404.26 227.626C403.607 228.241 402.954 228.856 402.281 229.49C399.892 231.602 399.892 231.602 396.616 233.59C395.895 232.934 395.175 232.278 394.432 231.602C395.037 231.123 395.643 230.644 396.266 230.15C397.057 229.522 397.848 228.894 398.664 228.247C399.449 227.625 400.234 227.002 401.044 226.36C402.521 225.167 403.955 223.928 405.352 222.656Z" fill="#CBCBCB"/>
<path d="M227.356 341.936C235.819 341.812 235.819 341.812 238.276 342.93C238.276 343.586 238.276 344.242 238.276 344.918C240.078 345.246 241.88 345.574 243.736 345.912C244.096 346.896 244.457 347.88 244.828 348.894C238.858 347.156 233.08 345.258 227.356 342.93C227.356 342.602 227.356 342.274 227.356 341.936Z" fill="#AE9A53"/>
<path d="M317.992 107.352C322.891 108.596 326.284 110.129 330.004 113.316C330.004 113.972 330.004 114.628 330.004 115.304C325.629 114.691 322.573 112.734 319.084 110.334C318.724 109.35 318.363 108.366 317.992 107.352Z" fill="#AFA575"/>
<path d="M146.548 109.34C138.467 115.304 138.467 115.304 133.444 115.304C133.444 114.648 133.444 113.992 133.444 113.316C135.201 112 135.201 112 137.539 110.645C138.299 110.19 139.059 109.735 139.842 109.266C142.607 108.178 143.775 108.402 146.548 109.34Z" fill="#B0A771"/>
<path d="M72.292 176.932C73.0127 176.932 73.7335 176.932 74.476 176.932C73.9649 180.964 73.5156 184.353 71.2 187.866C70.1189 187.866 69.0379 187.866 67.924 187.866C68.5868 183.763 70.1496 180.578 72.292 176.932Z" fill="#A59B6B"/>
<path d="M64.648 158.046C66.0894 158.374 67.5309 158.702 69.016 159.04C67.5203 163.011 65.4591 165.799 62.464 168.98C61.3829 168.324 60.3018 167.668 59.188 166.992C59.5483 166.336 59.9087 165.68 60.28 165.004C61.0007 165.004 61.7214 165.004 62.464 165.004C63.1847 162.708 63.9054 160.412 64.648 158.046Z" fill="#928556"/>
<path d="M409.72 309.134C411.161 309.462 412.603 309.79 414.088 310.128C412.647 313.408 411.205 316.688 409.72 320.068C408.639 319.74 407.558 319.412 406.444 319.074C407.525 315.794 408.606 312.514 409.72 309.134Z" fill="#9B9165"/>
<path d="M357.304 231.602C357.304 232.586 357.304 233.57 357.304 234.584C357.65 236.906 358.012 239.225 358.396 241.542C357.315 242.198 356.234 242.854 355.12 243.53C353.823 240.859 353.823 240.859 352.936 237.566C354.154 235.191 355.272 233.451 357.304 231.602Z" fill="#D1D1D1"/>
<path d="M182.584 94.43C182.584 95.086 182.584 95.7421 182.584 96.418C177.179 97.8941 177.179 97.8941 171.664 99.4C170.943 98.4159 170.223 97.4319 169.48 96.418C170.839 95.8867 172.205 95.3722 173.575 94.8649C174.335 94.5766 175.095 94.2883 175.878 93.9912C178.544 93.3582 180.007 93.6323 182.584 94.43Z" fill="#817550"/>
<path d="M162.45 177.864C163.768 177.895 163.768 177.895 165.112 177.926C165.112 178.254 165.112 178.582 165.112 178.92C171.598 179.248 178.085 179.576 184.768 179.914C184.768 180.242 184.768 180.57 184.768 180.908C180.81 180.966 176.851 181.001 172.892 181.032C171.765 181.049 170.637 181.066 169.476 181.083C168.399 181.089 167.322 181.096 166.213 181.102C164.72 181.118 164.72 181.118 163.197 181.134C160.744 180.908 160.744 180.908 158.56 178.92C159.652 177.926 159.652 177.926 162.45 177.864Z" fill="#F9DE6A"/>
<path d="M395.524 155.064C396.245 155.064 396.965 155.064 397.708 155.064C397.911 156.263 397.911 156.263 398.117 157.487C398.343 158.327 398.568 159.168 398.8 160.034C399.521 160.362 400.241 160.69 400.984 161.028C402.065 162.504 402.065 162.504 403.168 164.01C402.087 164.01 401.006 164.01 399.892 164.01C399.532 164.666 399.171 165.322 398.8 165.998C394.365 159.636 394.365 159.636 394.705 156.617C394.975 156.105 395.246 155.592 395.524 155.064Z" fill="#857B54"/>
<path d="M83.212 136.178C83.9327 136.178 84.6534 136.178 85.396 136.178C84.7486 139.55 83.466 141.358 80.9598 143.881C80.3615 144.491 79.7632 145.101 79.1469 145.73C78.6866 146.186 78.2263 146.642 77.752 147.112C77.3916 146.128 77.0313 145.144 76.66 144.13C77.9098 142.099 77.9098 142.099 79.7313 139.968C80.6202 138.901 80.6202 138.901 81.5271 137.813C82.0831 137.273 82.6391 136.734 83.212 136.178Z" fill="#B1A77C"/>
<path d="M132.352 329.014C133.073 329.342 133.793 329.67 134.536 330.008C133.815 330.869 133.095 331.73 132.352 332.617C130.029 336.185 129.744 337.887 130.168 341.936C129.087 342.428 129.087 342.428 127.984 342.93C126.511 336.715 126.511 336.715 128.325 333.176C130.168 331.002 130.168 331.002 132.352 329.014Z" fill="#B3A35C"/>
<path d="M203.332 170.968C204.773 171.296 206.215 171.624 207.7 171.962C204.97 173.95 204.97 173.95 202.24 175.938C201.272 176.676 200.303 177.414 199.305 178.174C196.78 179.914 196.78 179.914 194.596 179.914C194.956 178.602 195.317 177.29 195.688 175.938C197.129 175.938 198.571 175.938 200.056 175.938C200.416 174.954 200.777 173.97 201.148 172.956C201.869 172.956 202.589 172.956 203.332 172.956C203.332 172.3 203.332 171.644 203.332 170.968Z" fill="#BCAA5B"/>
<path d="M334.372 160.034C336.534 161.018 336.534 161.018 338.74 162.022C338.99 165.037 339.138 167.961 338.74 170.968C336.556 173.018 336.556 173.018 334.372 173.95C334.732 171.982 335.093 170.014 335.464 167.986C336.185 167.986 336.905 167.986 337.648 167.986C337.648 167.002 337.648 166.018 337.648 165.004C336.927 165.004 336.207 165.004 335.464 165.004C335.104 163.364 334.743 161.724 334.372 160.034Z" fill="#C9B870"/>
<path d="M399.892 164.01C403.022 165.055 404.074 165.669 405.625 168.421C406.444 170.968 406.444 170.968 406.444 173.95C403.168 172.956 403.168 172.956 401.325 170.098C399.892 166.992 399.892 166.992 399.892 164.01Z" fill="#B1A771"/>
<path d="M188.044 90.454C188.404 91.11 188.765 91.7661 189.136 92.442C190.217 92.77 191.298 93.098 192.412 93.436C188.153 96.0206 184.25 95.574 179.308 95.424C180.389 95.096 181.47 94.768 182.584 94.43C182.944 93.4459 183.305 92.4619 183.676 91.448C185.928 90.7646 185.928 90.7646 188.044 90.454Z" fill="#9A8D61"/>
<path d="M300.52 411.516C298.814 413.504 298.814 413.504 296.152 415.492C292.057 415.74 292.057 415.74 288.508 415.492C288.508 414.836 288.508 414.18 288.508 413.504C292.683 412.09 296.057 411.277 300.52 411.516Z" fill="#AEA370"/>
<path d="M162.928 394.618C166.171 395.602 169.414 396.586 172.756 397.6C172.396 398.584 172.035 399.568 171.664 400.582C168.06 399.598 164.457 398.614 160.744 397.6C161.465 397.272 162.185 396.944 162.928 396.606C162.928 395.95 162.928 395.294 162.928 394.618Z" fill="#998E54"/>
<path d="M114.88 108.346C115.24 109.33 115.601 110.314 115.972 111.328C113.449 113.296 110.927 115.264 108.328 117.292C107.607 116.964 106.887 116.636 106.144 116.298C111.194 110.583 111.194 110.583 114.88 108.346Z" fill="#ACA577"/>
<path d="M263.392 405.552C263.032 406.536 262.671 407.52 262.3 408.534C253.354 409.978 253.354 409.978 249.674 408.099C249.156 407.587 248.638 407.074 248.104 406.546C253.262 405.78 258.167 405.455 263.392 405.552Z" fill="#85744A"/>
<path d="M363.856 372.75C364.216 373.406 364.577 374.062 364.948 374.738C365.669 375.066 366.389 375.394 367.132 375.732C364.249 377.7 361.366 379.668 358.396 381.696C358.919 377.408 360.302 375.567 363.856 372.75Z" fill="#8E8558"/>
<path d="M67.924 309.134C69.0051 309.134 70.0862 309.134 71.2 309.134C74.476 314.85 74.476 314.85 74.476 317.086C73.3949 317.414 72.3139 317.742 71.2 318.08C70.1189 315.128 69.0379 312.176 67.924 309.134Z" fill="#9F9969"/>
<path d="M362.764 139.16C366.358 140.288 367.128 141.141 369.043 144.254C369.493 145.197 369.944 146.14 370.408 147.112C369.687 147.768 368.967 148.424 368.224 149.1C364.214 146.038 363.236 143.883 362.764 139.16Z" fill="#878059"/>
<path d="M105.052 115.304C105.773 115.632 106.493 115.96 107.236 116.298C105.608 120.07 103.133 121.875 99.592 124.25C99.2316 123.266 98.8713 122.282 98.5 121.268C100.662 119.3 102.824 117.332 105.052 115.304Z" fill="#938D5E"/>
<path d="M178.216 80.514C178.216 81.17 178.216 81.8261 178.216 82.502C174.501 84.5829 171.606 84.6683 167.296 84.49C170.361 80.3046 172.84 78.7662 178.216 80.514Z" fill="#AC9F6A"/>
<path d="M333.28 377.72C335.805 377.906 335.805 377.906 337.648 378.714C336.24 380.081 334.779 381.405 333.28 382.69C332.559 382.69 331.839 382.69 331.096 382.69C330.736 383.346 330.375 384.002 330.004 384.678C329.283 384.022 328.563 383.366 327.82 382.69C330.277 380.143 330.277 380.143 333.28 377.72Z" fill="#AEA26F"/>
<path d="M356.212 362.81C354.584 366.582 352.109 368.387 348.568 370.762C348.208 370.106 347.847 369.45 347.476 368.774C352.526 362.81 352.526 362.81 356.212 362.81Z" fill="#B5AA75"/>
<path d="M51.544 309.134C54.82 310.128 54.82 310.128 56.1168 312.489C57.004 315.098 57.004 315.098 57.004 318.08C55.9229 318.08 54.8418 318.08 53.728 318.08C53.0073 315.128 52.2866 312.176 51.544 309.134Z" fill="#ADA678"/>
<path d="M378.052 135.184C381.715 136.564 383.635 138.053 385.696 141.148C385.696 142.132 385.696 143.116 385.696 144.13C384.975 144.13 384.255 144.13 383.512 144.13C382.104 142.678 382.104 142.678 380.646 140.775C380.158 140.153 379.671 139.53 379.17 138.888C378.052 137.172 378.052 137.172 378.052 135.184Z" fill="#B7AB7F"/>
<path d="M99.592 122.262C99.0014 126.025 97.28 127.783 94.132 130.214C93.4113 130.214 92.6906 130.214 91.948 130.214C92.555 126.346 94.8514 122.262 99.592 122.262Z" fill="#A7A174"/>
<path d="M278.68 93.436C280.274 93.5226 281.866 93.6301 283.457 93.7466C284.788 93.8331 284.788 93.8331 286.145 93.9213C288.508 94.43 288.508 94.43 290.692 97.412C281.771 96.7464 281.771 96.7464 278.68 93.436Z" fill="#B1A776"/>
<path d="M211.658 87.9069C212.956 88.0081 214.254 88.1093 215.591 88.2136C216.591 88.2969 217.59 88.3802 218.62 88.466C218.62 88.794 218.62 89.122 218.62 89.46C213.105 90.4897 207.837 90.5559 202.24 90.454C202.24 89.798 202.24 89.1419 202.24 88.466C205.455 87.0029 208.108 87.6217 211.658 87.9069Z" fill="#BDB17A"/>
<path d="M308.164 408.534C307.804 409.518 307.443 410.502 307.072 411.516C303.182 413.193 303.182 413.193 299.428 414.498C299.068 413.186 298.707 411.874 298.336 410.522C302.017 409.033 304.019 408.534 308.164 408.534Z" fill="#9A8A5E"/>
<path d="M133.444 398.594C138.051 399.071 140.866 399.753 144.364 402.57C142.59 403.253 142.59 403.253 139.996 403.564C136.447 402.135 136.447 402.135 133.444 400.582C133.444 399.926 133.444 399.27 133.444 398.594Z" fill="#B1A773"/>
<path d="M301.612 394.618C301.972 395.602 302.333 396.586 302.704 397.6C300.542 398.584 298.38 399.568 296.152 400.582C294.711 399.598 293.269 398.614 291.784 397.6C299.155 394.618 299.155 394.618 301.612 394.618Z" fill="#9D925E"/>
<path d="M407.536 318.08C408.287 319.695 408.287 319.695 408.628 322.056C407.058 325.287 407.058 325.287 405.352 328.02C404.631 328.02 403.911 328.02 403.168 328.02C403.692 323.826 404.442 321.264 407.536 318.08Z" fill="#B8B375"/>
<path d="M159.652 169.974C162.6 170.118 162.6 170.118 165.863 170.782C166.948 170.993 168.033 171.204 169.152 171.422C170.395 171.689 170.395 171.689 171.664 171.962C171.664 172.618 171.664 173.274 171.664 173.95C164.096 173.458 164.096 173.458 156.376 172.956C157.457 171.972 158.538 170.988 159.652 169.974Z" fill="#C3AE5B"/>
<path d="M203.332 159.04C206.035 160.024 206.035 160.024 208.792 161.028C207.711 162.34 206.63 163.652 205.516 165.004C202.993 164.676 200.471 164.348 197.872 164.01C198.953 163.026 200.034 162.042 201.148 161.028C202.229 161.356 203.31 161.684 204.424 162.022C204.064 161.038 203.703 160.054 203.332 159.04Z" fill="#CDB947"/>
<path d="M335.464 100.394C338.126 100.518 338.126 100.518 340.924 101.388C342.903 103.438 342.903 103.438 344.2 105.364C342.426 106.11 342.426 106.11 339.832 106.358C336.283 104.432 336.283 104.432 333.28 102.382C334.001 101.726 334.721 101.07 335.464 100.394Z" fill="#928C5A"/>
<path d="M169.753 97.1635C171.239 97.2865 171.239 97.2865 172.756 97.412C170.572 100.394 170.572 100.394 168.448 100.903C167.662 100.96 166.877 101.018 166.067 101.077C163.973 101.231 163.973 101.231 161.836 101.388C164.469 98.4387 165.491 97.4619 169.753 97.1635Z" fill="#AFA56E"/>
<path d="M109.42 382.69C113.07 383.283 115.387 384.416 118.156 386.666C118.156 387.322 118.156 387.978 118.156 388.654C115.118 388.28 113.146 387.985 110.717 386.231C109.42 384.678 109.42 384.678 109.42 382.69Z" fill="#ACA46E"/>
<path d="M72.292 317.086C75.568 318.08 75.568 318.08 76.8647 319.882C77.752 322.056 77.752 322.056 77.752 326.032C77.0313 326.032 76.3106 326.032 75.568 326.032C72.292 320.441 72.292 320.441 72.292 317.086Z" fill="#B4AA73"/>
<path d="M358.396 115.304C362.764 116.629 363.679 118.779 366.04 122.262C365.319 122.918 364.599 123.574 363.856 124.25C358.396 118.659 358.396 118.659 358.396 115.304Z" fill="#80774E"/>
<path d="M161.836 98.406C162.917 99.7181 163.998 101.03 165.112 102.382C162.099 104.175 160.864 104.383 157.195 103.997C156.204 103.792 155.213 103.587 154.192 103.376C154.913 102.72 155.633 102.064 156.376 101.388C157.457 101.388 158.538 101.388 159.652 101.388C159.652 100.732 159.652 100.076 159.652 99.4C160.373 99.072 161.093 98.744 161.836 98.406Z" fill="#81794A"/>
<path d="M381.328 331.002C382.409 331.33 383.49 331.658 384.604 331.996C384.604 332.652 384.604 333.308 384.604 333.984C383.883 333.984 383.163 333.984 382.42 333.984C382.105 334.784 381.789 335.583 381.465 336.407C380.236 338.954 380.236 338.954 378.052 339.948C378.596 336.236 379.007 334.171 381.328 331.002Z" fill="#A29262"/>
<path d="M289.6 95.424C291.041 95.424 292.483 95.424 293.968 95.424C293.968 96.08 293.968 96.7361 293.968 97.412C295.049 97.084 296.13 96.756 297.244 96.418C297.965 97.074 298.685 97.7301 299.428 98.406C298.347 98.406 297.266 98.406 296.152 98.406C296.152 99.062 296.152 99.7181 296.152 100.394C293.63 99.738 291.107 99.0819 288.508 98.406C288.868 97.4219 289.229 96.4379 289.6 95.424Z" fill="#80734C"/>
<path d="M357.304 378.714C357.664 380.026 358.025 381.338 358.396 382.69C356.234 384.002 354.072 385.314 351.844 386.666C352.227 383.443 352.458 382.078 355.188 379.894C355.886 379.505 356.585 379.115 357.304 378.714Z" fill="#A59D6B"/>
<path d="M372.592 367.78C371.277 370.259 369.912 372.433 368.224 374.738C367.143 374.738 366.062 374.738 364.948 374.738C367.563 367.78 367.563 367.78 372.592 367.78Z" fill="#B3AE78"/>
<path d="M97.408 351.876C100.103 353.021 101.828 353.912 103.96 355.852C103.96 356.836 103.96 357.82 103.96 358.834C101.265 357.689 99.5398 356.798 97.408 354.858C97.408 353.874 97.408 352.89 97.408 351.876Z" fill="#B1A96F"/>
<path d="M239.641 331.313C240.632 331.538 241.623 331.764 242.644 331.996C241.563 332.324 240.482 332.652 239.368 332.99C239.008 333.974 238.647 334.958 238.276 335.972C236.114 335.316 233.952 334.66 231.724 333.984C234.604 331.463 235.556 330.955 239.641 331.313Z" fill="#E9D36D"/>
<path d="M257.932 87.472C259.548 87.5849 261.163 87.7118 262.778 87.8448C263.677 87.9139 264.577 87.9831 265.504 88.0544C266.62 88.2582 266.62 88.2582 267.76 88.466C268.12 89.122 268.481 89.7781 268.852 90.454C261.825 90.946 261.825 90.946 254.656 91.448C256.097 91.12 257.539 90.792 259.024 90.454C258.664 89.4699 258.303 88.4859 257.932 87.472Z" fill="#7B6E41"/>
<path d="M350.752 383.684C351.112 384.996 351.473 386.308 351.844 387.66C349.933 388.716 349.933 388.716 347.476 389.648C346.035 389.32 344.593 388.992 343.108 388.654C345.631 387.014 348.153 385.374 350.752 383.684Z" fill="#94895C"/>
<path d="M382.42 353.864C383.141 354.192 383.861 354.52 384.604 354.858C383.988 358.108 382.966 359.655 380.236 361.816C380.236 361.16 380.236 360.504 380.236 359.828C379.515 359.5 378.795 359.172 378.052 358.834C379.493 357.194 380.935 355.554 382.42 353.864Z" fill="#958556"/>
<path d="M51.544 181.902C52.9854 181.902 54.4269 181.902 55.912 181.902C55.5516 183.87 55.1913 185.838 54.82 187.866C53.3786 187.538 51.9371 187.21 50.452 186.872C50.8124 185.232 51.1727 183.592 51.544 181.902Z" fill="#928C60"/>
<path d="M406.444 172.956C408.696 175.255 408.696 175.255 410.812 177.926C410.452 178.91 410.091 179.894 409.72 180.908C409.36 180.252 408.999 179.596 408.628 178.92C407.547 179.412 407.547 179.412 406.444 179.914C405.723 177.946 405.003 175.978 404.26 173.95C404.981 173.622 405.701 173.294 406.444 172.956Z" fill="#807846"/>
<path d="M159.652 168.98C162.895 168.98 166.138 168.98 169.48 168.98C169.12 169.964 168.759 170.948 168.388 171.962C165.829 171.708 163.279 171.373 160.744 170.968C160.384 170.312 160.023 169.656 159.652 168.98Z" fill="#F5DD70"/>
<path d="M75.568 145.124C76.2887 146.108 77.0095 147.092 77.752 148.106C76.3188 150.094 76.3188 150.094 74.476 152.082C73.3949 152.082 72.3139 152.082 71.2 152.082C72.3728 149.184 73.1417 147.333 75.568 145.124Z" fill="#A29362"/>
<path d="M326.728 96.418C330.413 96.962 332.278 97.4666 335.464 99.4C335.464 100.056 335.464 100.712 335.464 101.388C331.779 100.844 329.914 100.339 326.728 98.406C326.728 97.75 326.728 97.0939 326.728 96.418Z" fill="#B0A678"/>
<path d="M260.116 75.544C261.89 75.4636 263.664 75.4057 265.439 75.3576C266.428 75.323 267.416 75.2884 268.434 75.2528C269.722 75.3969 269.722 75.3969 271.036 75.544C271.757 76.5281 272.477 77.5121 273.22 78.526C266.734 77.5419 266.734 77.5419 260.116 76.538C260.116 76.21 260.116 75.882 260.116 75.544Z" fill="#C5C07D"/>
<path d="M118.156 387.66C120.374 388.589 122.563 389.581 124.708 390.642C124.348 391.626 123.987 392.61 123.616 393.624C120.466 392.339 118.296 390.981 115.972 388.654C116.693 388.326 117.413 387.998 118.156 387.66Z" fill="#938C58"/>
<path d="M95.224 368.774C95.9447 369.102 96.6654 369.43 97.408 369.768C97.408 370.424 97.408 371.08 97.408 371.756C98.4891 372.084 99.5702 372.412 100.684 372.75C100.324 373.734 99.9633 374.718 99.592 375.732C98.1506 375.076 96.7091 374.42 95.224 373.744C95.224 373.088 95.224 372.432 95.224 371.756C94.5033 371.428 93.7826 371.1 93.04 370.762C93.7607 370.762 94.4814 370.762 95.224 370.762C95.224 370.106 95.224 369.45 95.224 368.774Z" fill="#87824F"/>
<path d="M367.132 348.894C367.492 348.894 367.853 348.894 368.224 348.894C368.429 351.255 368.429 351.255 368.224 353.864C367.143 354.52 366.062 355.176 364.948 355.852C364.227 355.524 363.507 355.196 362.764 354.858C364.022 352.405 365 350.834 367.132 348.894Z" fill="#8D8557"/>
<path d="M66.832 334.978C68.2734 336.618 69.7149 338.258 71.2 339.948C70.4793 341.26 69.7586 342.572 69.016 343.924C67.3097 341.128 67.3097 341.128 65.74 337.96C66.1004 336.976 66.4607 335.992 66.832 334.978Z" fill="#9C945D"/>
<path d="M273.22 159.04C276.463 159.04 279.706 159.04 283.048 159.04C283.048 159.696 283.048 160.352 283.048 161.028C279.014 162.252 276.271 161.668 272.128 161.028C272.488 160.372 272.849 159.716 273.22 159.04Z" fill="#C7AD5A"/>
<path d="M364.948 122.262C368.625 123.647 370.393 125.223 372.592 128.226C371.151 128.226 369.709 128.226 368.224 128.226C364.948 125.031 364.948 125.031 364.948 122.262Z" fill="#BCB386"/>
<path d="M155.284 88.466C155.284 89.122 155.284 89.7781 155.284 90.454C151.912 92.208 150.661 92.442 146.548 92.442C146.548 91.786 146.548 91.1299 146.548 90.454C149.92 88.7 151.171 88.466 155.284 88.466Z" fill="#ACA570"/>
<path d="M272.128 75.544C274.651 76.2 277.173 76.8561 279.772 77.532C276.305 79.4284 274.196 79.6799 270.217 79.1472C269.344 79.0371 268.472 78.9269 267.572 78.8133C266.914 78.7185 266.255 78.6237 265.576 78.526C267.843 77.9758 269.773 77.532 272.128 77.532C272.128 76.876 272.128 76.2199 272.128 75.544Z" fill="#776B3F"/>
<path d="M237.184 239.554C237.544 240.538 237.905 241.522 238.276 242.536C237.916 243.192 237.555 243.848 237.184 244.524C238.265 244.852 239.346 245.18 240.46 245.518C238.298 246.502 238.298 246.502 236.092 247.506C236.092 246.85 236.092 246.194 236.092 245.518C235.011 245.19 233.93 244.862 232.816 244.524C234.257 242.884 235.699 241.244 237.184 239.554Z" fill="#A1A1A1"/>
<path d="M213.16 420.462C212.079 421.938 212.079 421.938 210.976 423.444C207.372 423.116 203.769 422.788 200.056 422.45C200.056 422.122 200.056 421.794 200.056 421.456C204.494 420.687 208.644 420.364 213.16 420.462Z" fill="#736745"/>
<path d="M288.508 398.594C291.921 398.408 291.921 398.408 295.06 398.594C295.06 399.25 295.06 399.906 295.06 400.582C292.177 400.91 289.294 401.238 286.324 401.576C287.045 400.592 287.765 399.608 288.508 398.594Z" fill="#B3AA76"/>
<path d="M70.108 341.936C71.1891 342.264 72.2702 342.592 73.384 342.93C74.6808 345.974 74.6808 345.974 75.568 348.894C73.4523 348.211 73.4523 348.211 71.2 346.906C70.381 344.297 70.381 344.297 70.108 341.936Z" fill="#B7B176"/>
<path d="M395.524 336.966C397.708 339.948 397.708 339.948 397.708 341.936C396.987 341.936 396.267 341.936 395.524 341.936C395.524 342.592 395.524 343.248 395.524 343.924C394.083 343.596 392.641 343.268 391.156 342.93C392.597 340.962 394.039 338.994 395.524 336.966Z" fill="#928758"/>
<path d="M393.34 309.134C394.421 309.134 395.502 309.134 396.616 309.134C395.895 311.43 395.175 313.726 394.432 316.092C393.711 315.764 392.991 315.436 392.248 315.098C392.608 313.13 392.969 311.162 393.34 309.134Z" fill="#A9A26E"/>
<path d="M240.46 232.596C239.249 234.8 237.736 236.608 236.092 238.56C235.371 236.592 234.651 234.624 233.908 232.596C237.184 231.602 237.184 231.602 240.46 232.596Z" fill="#D8D8D8"/>
<path d="M402.076 227.626C402.797 227.626 403.517 227.626 404.26 227.626C403.9 228.938 403.539 230.25 403.168 231.602C402.447 231.602 401.727 231.602 400.984 231.602C400.984 232.586 400.984 233.57 400.984 234.584C399.903 234.256 398.822 233.928 397.708 233.59C400.848 228.744 400.848 228.744 402.076 227.626Z" fill="#FCFCFC"/>
<path d="M82.12 161.028C82.8407 161.028 83.5614 161.028 84.304 161.028C83.9436 162.996 83.5833 164.964 83.212 166.992C82.1309 167.32 81.0498 167.648 79.936 167.986C80.8915 163.265 80.8915 163.265 82.12 161.028Z" fill="#A9A06D"/>
<path d="M93.04 149.1C93.4003 149.756 93.7607 150.412 94.132 151.088C92.6905 152.728 91.2491 154.368 89.764 156.058C89.0433 155.402 88.3225 154.746 87.58 154.07C89.3818 152.43 91.1836 150.79 93.04 149.1Z" fill="#ABA56A"/>
<path d="M305.98 101.388C308.142 102.044 310.304 102.7 312.532 103.376C312.172 104.36 311.811 105.344 311.44 106.358C309.278 105.702 307.116 105.046 304.888 104.37C305.248 103.386 305.609 102.402 305.98 101.388Z" fill="#938551"/>
<path d="M155.284 392.63C158.527 393.122 158.527 393.122 161.836 393.624C162.196 394.608 162.557 395.592 162.928 396.606C160.334 396.295 160.334 396.295 157.468 395.612C156.747 394.628 156.027 393.644 155.284 392.63Z" fill="#C2BA7D"/>
<path d="M118.156 368.774C119.597 370.086 121.039 371.398 122.524 372.75C121.443 373.078 120.362 373.406 119.248 373.744C117.807 372.432 116.365 371.12 114.88 369.768C115.961 369.44 117.042 369.112 118.156 368.774Z" fill="#8D8758"/>
<path d="M392.248 181.902C393.329 182.23 394.41 182.558 395.524 182.896C395.884 184.536 396.245 186.176 396.616 187.866C395.535 187.866 394.454 187.866 393.34 187.866C392.98 185.898 392.619 183.93 392.248 181.902Z" fill="#A4A16D"/>
<path d="M385.696 169.974C387.498 171.286 389.3 172.598 391.156 173.95C390.796 174.934 390.435 175.918 390.064 176.932C389.343 176.932 388.623 176.932 387.88 176.932C386.285 174.301 385.696 173.061 385.696 169.974Z" fill="#ACA86F"/>
<path d="M60.28 167.986C61.0007 167.986 61.7214 167.986 62.464 167.986C62.1228 170.347 62.1228 170.347 61.372 172.956C60.2909 173.612 59.2098 174.268 58.096 174.944C59.0515 169.104 59.0515 169.104 60.28 167.986Z" fill="#C0B484"/>
</svg>
