<?xml version="1.0" standalone="no"?>
<!DOCTYPE svg PUBLIC "-//W3C//DTD SVG 20010904//EN"
 "http://www.w3.org/TR/2001/REC-SVG-20010904/DTD/svg10.dtd">
<svg version="1.0" xmlns="http://www.w3.org/2000/svg"
 width="500.000000pt" height="500.000000pt" viewBox="0 0 500.000000 500.000000"
 preserveAspectRatio="xMidYMid meet">

<g transform="translate(0.000000,500.000000) scale(0.100000,-0.100000)"
fill="#000000" stroke="none">
<path d="M0 2500 l0 -2500 2500 0 2500 0 0 2500 0 2500 -2500 0 -2500 0 0
-2500z m2825 1730 c574 -125 1047 -507 1270 -1026 20 -47 34 -88 31 -92 -8 -8
-9 -7 -56 98 -262 588 -808 973 -1461 1031 -438 38 -905 -110 -1250 -397 -87
-72 -207 -197 -275 -285 -68 -88 -168 -260 -211 -361 -20 -48 -41 -88 -46 -88
-25 0 101 256 186 378 284 410 675 661 1172 753 145 27 496 21 640 -11z m-82
-130 c526 -90 950 -408 1197 -900 44 -87 45 -90 30 -90 -6 0 -24 29 -40 65
-144 321 -423 607 -748 765 -547 266 -1204 201 -1685 -167 -88 -68 -243 -225
-308 -313 -65 -88 -130 -198 -170 -286 -16 -35 -34 -64 -39 -64 -15 0 -13 5
40 109 229 445 591 734 1080 862 165 43 455 51 643 19z m-627 -645 c20 -8 58
-31 85 -51 39 -28 61 -37 107 -41 71 -7 367 11 652 38 368 35 490 14 490 -84
0 -32 -48 -74 -98 -84 -72 -15 -451 -7 -692 16 -387 36 -379 36 -427 9 -23
-13 -61 -36 -84 -53 l-43 -30 -225 1 c-215 1 -401 16 -401 34 0 5 97 10 215
12 144 2 218 7 226 14 16 17 -18 22 -221 34 -96 5 -186 10 -200 11 -60 4 107
17 231 18 139 1 199 7 199 21 0 13 -65 21 -256 30 -102 5 -188 10 -190 13 -2
2 85 7 195 11 202 7 266 15 243 30 -16 9 -223 25 -352 26 -123 2 -94 16 55 28
193 16 451 14 491 -3z m633 -664 c25 -24 31 -37 31 -71 0 -37 -6 -48 -54 -99
l-55 -57 48 -101 c27 -55 54 -103 60 -107 6 -4 11 -11 11 -17 0 -12 -116 -12
-139 0 -10 6 -37 53 -61 105 -23 53 -46 96 -50 96 -6 0 -50 -55 -50 -63 0 -3
13 -7 29 -10 91 -18 90 -137 -1 -145 -69 -6 -128 79 -98 139 6 13 34 44 62 69
l50 46 -51 101 c-28 56 -55 104 -61 108 -25 16 -5 25 54 25 79 0 85 -5 139
-123 l41 -89 23 26 c28 33 29 46 3 46 -31 0 -70 44 -70 80 0 70 82 94 139 41z
m205 8 c25 -20 26 -23 26 -135 0 -111 1 -115 24 -125 17 -8 29 -8 45 0 20 11
21 20 21 130 0 140 4 146 89 146 45 0 55 -3 52 -15 -3 -8 -7 -68 -10 -133 -6
-111 -8 -119 -31 -138 -14 -11 -38 -22 -53 -26 l-29 -6 4 -83 3 -84 -77 0
c-72 0 -94 9 -67 25 10 7 8 131 -2 138 -2 1 -21 10 -41 19 -55 25 -66 55 -70
191 l-3 117 46 0 c32 0 55 -7 73 -21z m-1933 -3 c44 -18 67 -44 75 -83 5 -26
1 -37 -19 -57 -33 -33 -61 -33 -92 -1 -18 17 -25 35 -25 64 0 36 -3 41 -27 47
-54 14 -58 2 -61 -177 -1 -90 0 -174 3 -186 6 -27 37 -38 65 -23 17 9 20 20
20 85 0 73 -1 75 -25 75 -16 0 -25 6 -25 15 0 13 15 15 93 13 l92 -3 3 -70 c3
-87 -10 -113 -68 -142 -79 -40 -207 -29 -262 24 l-28 27 0 164 c0 98 4 171 11
184 27 51 190 77 270 44z m429 -8 c25 -13 50 -34 57 -48 7 -16 13 -96 15 -218
l3 -192 -72 0 -73 0 0 109 c0 119 -2 122 -57 114 l-33 -5 0 -109 0 -109 -75 0
c-72 0 -75 1 -65 19 6 12 10 96 10 205 0 175 1 187 21 207 34 34 80 48 154 49
54 0 81 -5 115 -22z m250 2 c19 -19 20 -33 20 -210 l0 -190 26 -12 c36 -17 58
0 65 50 7 51 33 82 70 82 38 0 73 -44 65 -84 -15 -74 -70 -95 -244 -96 -128 0
-132 1 -122 19 6 12 10 101 10 221 0 120 -4 209 -10 221 -10 18 -7 19 45 19
42 0 60 -5 75 -20z m604 -3 c52 -34 55 -48 58 -260 l3 -197 -72 0 -73 0 0 109
c0 114 -4 124 -46 116 -11 -2 -22 -4 -26 -4 -5 -1 -8 -50 -8 -111 l0 -110 -76
0 c-65 0 -75 2 -70 16 3 9 6 98 6 199 0 183 0 184 26 214 14 17 40 35 57 41
50 15 190 7 221 -13z m1556 -217 l0 -240 -60 0 -60 0 0 197 c0 195 0 196 -20
178 -21 -19 -26 -50 -10 -60 15 -10 12 -72 -5 -89 -42 -42 -107 -18 -113 42
-3 27 6 39 67 98 98 92 129 114 168 114 l33 0 0 -240z m350 0 l0 -240 -65 0
-64 0 0 191 c0 105 -2 193 -5 196 -2 3 -12 -7 -21 -21 -16 -23 -16 -27 1 -54
21 -37 13 -76 -21 -98 -21 -14 -30 -14 -56 -4 -33 14 -53 51 -44 82 4 10 49
57 102 103 85 76 99 85 134 85 l39 0 0 -240z m-3336 -771 c43 -101 140 -266
212 -362 75 -98 270 -286 374 -359 463 -328 1051 -412 1587 -227 454 157 824
494 1020 933 51 112 51 112 59 103 8 -8 -69 -180 -121 -268 -138 -237 -358
-466 -587 -613 -137 -87 -336 -172 -507 -216 -265 -67 -607 -67 -872 0 -390
100 -730 327 -973 650 -88 117 -134 191 -190 312 -50 105 -61 138 -49 138 5 0
26 -41 47 -91z m146 26 c175 -390 529 -706 945 -844 215 -71 404 -95 625 -80
341 23 677 163 944 393 142 123 297 326 382 504 25 50 49 92 54 92 15 0 13 -4
-30 -90 -250 -498 -680 -817 -1220 -906 -109 -18 -369 -18 -485 0 -525 81
-966 401 -1209 875 -60 117 -61 121 -46 121 6 0 24 -29 40 -65z m905 -145 c82
-11 227 -25 322 -31 152 -9 179 -9 235 7 125 33 794 28 917 -8 51 -15 71 -39
55 -65 -32 -52 -256 -98 -541 -112 -215 -11 -273 -2 -396 55 l-79 37 -191 -6
c-106 -3 -266 -15 -357 -27 -276 -36 -370 -19 -370 66 0 50 10 65 54 85 55 25
159 24 351 -1z"/>
<path d="M1305 2754 c-12 -13 -15 -32 -13 -88 l3 -71 43 -3 42 -3 0 78 c0 48
-5 84 -12 91 -17 17 -44 15 -63 -4z"/>
<path d="M2153 2762 c-12 -8 -17 -42 -15 -119 l2 -53 40 0 40 0 0 84 c0 67 -3
85 -16 90 -21 8 -36 7 -51 -2z"/>
</g>
</svg>
